<svg width="184" height="140" viewBox="0 0 184 140" fill="none" xmlns="http://www.w3.org/2000/svg">
<g clip-path="url(#clip0_463_4062)">
<path d="M175.438 44.276C174.589 41.7215 173.975 39.0934 173.601 36.4285C173.404 35.0093 173.281 33.527 173.735 32.1709C173.943 31.5454 174.455 30.8674 175.117 30.9725C175.406 31.0198 175.646 31.2143 175.838 31.4298C176.441 32.1131 176.681 33.0382 176.831 33.9318C177.413 37.4061 176.922 41.0487 175.443 44.255L175.438 44.276Z" fill="#54878C"/>
<path d="M44.93 129.385C43.1471 131.419 41.1827 133.301 39.0581 134.993C37.9264 135.897 36.704 136.764 35.284 137.085C34.6328 137.232 33.7787 137.153 33.5278 136.538C33.421 136.27 33.4637 135.965 33.5545 135.692C33.8374 134.83 34.5153 134.152 35.2146 133.558C37.9317 131.266 41.3535 129.795 44.9033 129.385H44.93Z" fill="#54878C"/>
<path d="M177.055 44.3601C177.743 43.6715 178.192 42.7937 178.645 41.9422C179.099 41.0907 179.596 40.2234 180.338 39.598C181.08 38.9725 182.142 38.6203 183.06 38.9409C183.279 39.0198 183.503 39.1459 183.583 39.3614C183.647 39.5401 183.605 39.7399 183.546 39.9238C183.113 41.2484 182.04 42.2996 180.818 42.9987C179.601 43.7031 177.055 44.3601 177.055 44.3601Z" fill="#54878C"/>
<path d="M54.3101 19.4614C47.7549 17.4062 41.1196 15.1355 34.3188 16.171C27.518 17.2065 21.1016 20.2498 15.7581 24.5126C14.6585 25.3904 13.5748 26.347 12.9076 27.5822C12.2403 28.8122 12.0481 30.3785 12.7474 31.5927C13.799 33.4219 16.4521 33.7741 18.4325 32.9909C20.413 32.2077 21.913 30.6098 23.4771 29.1749C29.002 24.1079 35.963 20.7386 43.2121 18.6624C46.8207 17.627 50.7015 18.3313 54.3101 19.4614Z" fill="#89BFC4"/>
<path d="M106.417 40.4466C101.335 33.6556 92.7085 30.2968 86.5377 24.4414C82.8757 20.9618 79.2885 17.1616 77.5696 12.4467C76.7956 10.3285 76.4272 8.02101 76.865 5.8134C77.3027 3.60579 78.6159 1.50855 80.6123 0.41526C81.4878 -0.0630556 82.5554 -0.341635 83.5003 -0.0157496C84.3597 0.278599 84.9789 1.00396 85.5021 1.73983C87.8775 5.0565 89.1373 8.99866 90.5733 12.8042C94.31 22.6964 100.048 31.942 106.417 40.4466Z" fill="#54878C"/>
<path d="M31.1792 128.281C25.6169 128.439 19.8891 128.323 14.7485 126.22C9.95483 124.26 5.97792 120.665 2.96722 116.502C1.27503 114.157 -0.176941 111.513 -0.363776 108.644C-0.55061 105.774 0.799937 102.657 3.44765 101.448C6.70391 99.9551 10.6434 101.784 13.0029 104.449C15.3624 107.114 16.6862 110.499 18.688 113.432C21.6507 117.768 26.0546 121.027 30.8643 123.24C35.6739 125.453 40.8946 126.678 46.1313 127.529C46.1367 127.534 36.2238 128.139 31.1792 128.281Z" fill="#89BFC4"/>
<path d="M10.2329 34.7307C8.65815 35.5349 7.97487 37.3483 7.4197 39.0093C6.32539 42.2839 5.22573 45.5585 4.13141 48.8331C3.88586 49.569 3.62429 50.3259 3.10116 50.9041C2.57268 51.4823 1.70256 51.8239 0.981917 51.5191C0.410737 51.2773 0.0637591 50.6938 -0.107061 50.1052C-0.587493 48.4547 0.0317304 46.6939 0.784407 45.1433C2.20969 42.2156 4.1581 39.5349 6.50688 37.259C7.63323 36.1657 8.9037 35.1407 10.4197 34.6992L10.2329 34.7307Z" fill="#54878C"/>
<path d="M155.43 75.9236C164.905 75.9289 163.741 58.5624 163.912 49.2326C163.933 48.1708 163.987 46.9514 164.835 46.2891C166.111 45.2852 168.028 46.4047 168.892 47.7714C170.126 49.7162 170.414 52.0972 170.376 54.3889C170.28 60.1865 168.225 65.9316 164.611 70.5097C162.337 73.3796 159.124 75.9289 155.43 75.9236Z" fill="#89BFC4"/>
<path d="M82.6228 121.532C79.2064 124.554 74.8505 126.525 70.297 127.114C65.6102 127.718 60.8325 126.888 56.1296 127.361C54.7951 127.492 53.2364 127.918 52.8093 129.169C52.409 130.331 53.2471 131.561 54.2239 132.318C56.5087 134.089 59.6315 134.436 62.5301 134.184C65.9305 133.884 69.2668 132.838 72.2188 131.151C76.3932 128.759 79.7135 125.169 82.7562 121.479" fill="#89BFC4"/>
<path d="M83.8987 122.951C82.6709 126.767 82.5748 130.93 83.6211 134.799C84.235 137.064 85.6176 139.529 87.977 139.855C88.6016 136.901 87.8115 133.847 86.8774 130.977C85.9699 128.191 84.9129 125.453 83.7118 122.772L83.8987 122.951Z" fill="#54878C"/>
<path d="M157.239 78.7778C160.272 76.176 164.227 74.9408 168.071 74.0052C168.898 73.8054 169.789 73.632 170.638 73.7634C171.316 73.8685 171.978 74.1891 172.394 74.7305C174.546 77.5321 169.496 78.1733 167.878 78.2785C165.263 78.4467 162.642 78.5255 160.026 78.7147C159.562 78.7463 157.4 78.6359 157.191 78.8146C157.207 78.8041 157.223 78.7883 157.239 78.7778Z" fill="#54878C"/>
<path d="M104.323 75.4979C104.323 101.585 82.8473 122.73 56.3542 122.73C29.861 122.73 8.38574 101.585 8.38574 75.4979C8.38574 49.4113 29.861 28.2656 56.3542 28.2656C82.842 28.2656 104.323 49.4113 104.323 75.4979Z" fill="#E1A600"/>
<path d="M96.1288 75.4979C96.1288 97.1325 78.3208 114.667 56.3491 114.667C34.3773 114.667 16.5693 97.1325 16.5693 75.4979C16.5693 53.8633 34.3773 36.3286 56.3491 36.3286C78.3208 36.3286 96.1288 53.8633 96.1288 75.4979Z" fill="white"/>
<path d="M73.3834 75.4979C73.3834 84.7594 65.7552 92.2705 56.3494 92.2705C46.9436 92.2705 39.3154 84.7594 39.3154 75.4979C39.3154 66.2365 46.9436 58.7253 56.3494 58.7253C65.7552 58.7253 73.3834 66.2365 73.3834 75.4979Z" fill="#E6F3F4"/>
<path d="M103.453 60.7437C103.213 59.9921 102.396 59.5769 101.632 59.8186C100.869 60.0552 100.447 60.8594 100.693 61.611C102.14 66.0841 102.871 70.7621 102.871 75.5032C102.871 100.765 81.9988 121.311 56.3491 121.311C30.6941 121.311 9.82732 100.759 9.82732 75.5032C9.82732 50.2471 30.6994 29.6953 56.3491 29.6953C68.0183 29.6953 79.175 33.9686 87.7694 41.7215C88.3619 42.2524 89.2747 42.2156 89.8139 41.6321C90.353 41.054 90.3156 40.1499 89.7231 39.619C80.5896 31.3773 68.7389 26.8412 56.3438 26.8412C43.1426 26.8412 30.7314 31.9029 21.4004 41.0908C12.064 50.2839 6.92871 62.4993 6.92871 75.4979C6.92871 88.4966 12.0693 100.717 21.4004 109.905C30.7368 119.098 43.1426 124.16 56.3438 124.16C69.545 124.16 81.9561 119.098 91.2872 109.905C100.624 100.712 105.764 88.4966 105.764 75.4979C105.77 70.4625 104.99 65.5006 103.453 60.7437Z" fill="#292E56"/>
<path d="M98.4884 56.0552C98.734 56.5703 99.2571 56.8752 99.8016 56.8752C100.01 56.8752 100.218 56.8331 100.415 56.7385C101.141 56.4021 101.451 55.5559 101.109 54.841C99.3318 51.1091 97.0685 47.6032 94.3834 44.4179C93.8709 43.8135 92.9581 43.7294 92.3442 44.234C91.7303 44.7386 91.6449 45.6374 92.1574 46.2418C94.6823 49.2431 96.8122 52.544 98.4884 56.0552Z" fill="#292E56"/>
<path d="M56.349 50.9619C57.1497 50.9619 57.7956 50.3259 57.7956 49.5375V42.0369C57.7956 41.2484 57.1497 40.6124 56.349 40.6124C55.5483 40.6124 54.9023 41.2484 54.9023 42.0369V49.5375C54.9023 50.3259 55.5483 50.9619 56.349 50.9619Z" fill="#95999E"/>
<path d="M54.9023 101.458V108.959C54.9023 109.747 55.5483 110.383 56.349 110.383C57.1497 110.383 57.7956 109.747 57.7956 108.959V101.458C57.7956 100.67 57.1497 100.034 56.349 100.034C55.5483 100.034 54.9023 100.67 54.9023 101.458Z" fill="#95999E"/>
<path d="M91.7784 75.4979C91.7784 74.7095 91.1324 74.0735 90.3317 74.0735H82.7142C81.9135 74.0735 81.2676 74.7095 81.2676 75.4979C81.2676 76.2863 81.9135 76.9223 82.7142 76.9223H90.3317C91.1324 76.9223 91.7784 76.2863 91.7784 75.4979Z" fill="#95999E"/>
<path d="M20.9199 75.4979C20.9199 76.2863 21.5658 76.9223 22.3666 76.9223H29.9841C30.7848 76.9223 31.4307 76.2863 31.4307 75.4979C31.4307 74.7095 30.7848 74.0735 29.9841 74.0735H22.3666C21.5712 74.0735 20.9199 74.7095 20.9199 75.4979Z" fill="#95999E"/>
<path d="M84.7694 57.1064L81.5239 59.0145C80.8352 59.4192 80.611 60.2917 81.0221 60.9698C81.2943 61.4165 81.7748 61.6636 82.2659 61.6636C82.5168 61.6636 82.773 61.6005 83.0079 61.4639L86.2534 59.5558C86.9421 59.1511 87.1663 58.2786 86.7552 57.6005C86.3495 56.9225 85.4581 56.7017 84.7694 57.1064Z" fill="#95999E"/>
<path d="M29.6845 89.532L26.4389 91.44C25.7503 91.8447 25.5261 92.7173 25.9371 93.3953C26.2094 93.8421 26.6898 94.0892 27.1809 94.0892C27.4318 94.0892 27.688 94.0261 27.9229 93.8894L31.1685 91.9814C31.8571 91.5767 32.076 90.7042 31.6703 90.0261C31.2592 89.3481 30.3731 89.1326 29.6845 89.532Z" fill="#95999E"/>
<path d="M71.1039 99.7974C70.4153 100.202 70.1911 101.075 70.6022 101.753L72.5399 104.949C72.8121 105.395 73.2926 105.642 73.7837 105.642C74.0346 105.642 74.2908 105.579 74.5257 105.443C75.2143 105.038 75.4385 104.165 75.0275 103.487L73.0897 100.292C72.6787 99.6135 71.7926 99.3927 71.1039 99.7974Z" fill="#95999E"/>
<path d="M40.1532 46.0474C39.7422 45.3693 38.856 45.1538 38.1674 45.5533C37.4788 45.958 37.2546 46.8305 37.6656 47.5086L39.6034 50.7044C39.8756 51.1511 40.3561 51.3982 40.8472 51.3982C41.0981 51.3982 41.3543 51.3351 41.5892 51.1984C42.2778 50.7937 42.502 49.9212 42.0909 49.2431L40.1532 46.0474Z" fill="#95999E"/>
<path d="M73.8364 45.159C73.1425 44.7701 72.2564 45.0119 71.8613 45.6952L69.9983 48.933C69.6033 49.6163 69.8489 50.4888 70.5428 50.8778C70.767 51.004 71.0126 51.0618 71.2581 51.0618C71.7653 51.0618 72.251 50.8042 72.5179 50.3417L74.3809 47.1038C74.7706 46.4153 74.5304 45.548 73.8364 45.159Z" fill="#95999E"/>
<path d="M40.1856 100.659L38.3226 103.897C37.9275 104.581 38.1731 105.453 38.867 105.842C39.0912 105.968 39.3368 106.026 39.5824 106.026C40.0841 106.026 40.5752 105.768 40.8421 105.306L42.7052 102.068C43.1002 101.385 42.8546 100.512 42.1607 100.123C41.4614 99.7343 40.5806 99.9709 40.1856 100.659Z" fill="#95999E"/>
<path d="M83.3338 88.9328C82.6398 88.5439 81.7537 88.7856 81.3587 89.4689C80.9637 90.1523 81.2092 91.0248 81.9032 91.4137L85.1915 93.2482C85.4157 93.3743 85.6612 93.4321 85.9068 93.4321C86.4139 93.4321 86.8997 93.1746 87.1666 92.712C87.5616 92.0287 87.316 91.1562 86.6221 90.7672L83.3338 88.9328Z" fill="#95999E"/>
<path d="M30.7949 59.5821L27.5066 57.7477C26.8127 57.3587 25.9266 57.6005 25.5315 58.2838C25.1365 58.9671 25.3821 59.8397 26.076 60.2286L29.3643 62.063C29.5885 62.1892 29.8341 62.247 30.0796 62.247C30.5814 62.247 31.0725 61.9895 31.3394 61.5269C31.7344 60.8383 31.4942 59.9711 30.7949 59.5821Z" fill="#95999E"/>
<path d="M49.5541 74.1313L21.4809 81.6582C20.2425 81.9894 19.4204 83.2193 19.7247 84.4493C20.0343 85.7213 21.3474 86.4782 22.6233 86.1365L50.7872 78.5833C52.0364 78.2469 52.773 76.9802 52.4314 75.7502C52.0897 74.5203 50.8032 73.7949 49.5541 74.1313Z" fill="#53575B"/>
<path d="M46.6174 51.7976L52.2545 72.1812C52.5961 73.4112 53.8826 74.1366 55.1318 73.8002C56.3809 73.4638 57.1175 72.197 56.7759 70.9671L51.1175 50.4888C50.7705 49.2379 49.4413 48.5073 48.1708 48.8857C46.9431 49.2589 46.2811 50.5782 46.6174 51.7976Z" fill="#53575B"/>
<path d="M22.5158 83.7712L23.8504 88.5859C24.16 89.7002 23.1297 90.7199 21.9927 90.4256L17.0923 89.1536L12.1919 87.8816C11.0602 87.5872 10.6759 86.1996 11.4979 85.3796L15.0691 81.8369L18.6404 78.2942C19.4624 77.4743 20.8824 77.8422 21.1866 78.9565L22.5158 83.7712Z" fill="#53575B"/>
<path d="M49.1744 52.2497L44.2847 53.5637C43.153 53.8686 42.1174 52.8541 42.4164 51.7346L43.7082 46.9094L45 42.0842C45.299 40.9698 46.7082 40.5914 47.541 41.4009L51.1389 44.9173L54.7368 48.4337C55.5695 49.2431 55.1959 50.6413 54.0642 50.9409L49.1744 52.2497Z" fill="#53575B"/>
<path d="M53.5199 67.9552C57.4381 66.904 61.4791 69.18 62.5467 73.038C63.6143 76.8961 61.3029 80.875 57.3847 81.9263C53.4665 82.9775 49.4256 80.7016 48.3633 76.8435C47.2903 72.9854 49.6017 69.0065 53.5199 67.9552Z" fill="#54878C"/>
<path d="M54.6252 71.9657C56.296 71.519 58.0149 72.4861 58.4686 74.1313C58.9224 75.7765 57.9402 77.469 56.2693 77.9158C54.6038 78.3625 52.8796 77.3954 52.4259 75.7502C51.9775 74.1103 52.9597 72.4125 54.6252 71.9657Z" fill="#E1A600"/>
<path d="M112.88 132.812C112.88 133.989 113.857 134.951 115.053 134.951H127.699C128.894 134.951 129.871 133.989 129.871 132.812V126.026C129.871 124.849 130.8 123.571 131.926 123.193L135.167 121.884C136.245 121.369 137.82 121.626 138.668 122.457L143.595 127.272C144.444 128.102 145.832 128.102 146.681 127.272L155.612 118.541C156.46 117.711 156.46 116.354 155.612 115.524L150.685 110.709C149.836 109.879 149.574 108.339 150.103 107.282L151.432 104.134C151.827 103.019 153.124 102.11 154.32 102.11H161.302C162.498 102.11 163.475 101.148 163.475 99.9709V87.645C163.475 86.4676 162.498 85.5058 161.302 85.5058H154.32C153.124 85.5058 151.822 84.5964 151.432 83.4821L150.103 80.3336C149.574 79.2771 149.836 77.7371 150.685 76.9066L155.612 72.0971C156.46 71.2667 156.46 69.9106 155.612 69.0801L146.681 60.3495C145.832 59.519 144.444 59.519 143.595 60.3495L138.668 65.1642C137.82 65.9947 136.245 66.2522 135.167 65.7371L131.926 64.4283C130.795 64.0446 129.871 62.7726 129.871 61.5952V54.7989C129.871 53.6216 128.894 52.6597 127.699 52.6597H115.053C113.857 52.6597 112.88 53.6216 112.88 54.7989V61.5847C112.88 62.7621 111.951 64.0394 110.825 64.4178L107.584 65.7266C106.506 66.2417 104.931 65.9842 104.083 65.1537L99.1556 60.339C98.3068 59.5085 96.9189 59.5085 96.0701 60.339L87.1394 69.0643C86.2907 69.8948 86.2907 71.2509 87.1394 72.0814L92.0665 76.8961C92.9153 77.7266 93.1769 79.2666 92.6484 80.3231L91.3192 83.4716C90.9242 84.5859 89.627 85.4952 88.4313 85.4952H81.449C80.2532 85.4952 79.2764 86.4571 79.2764 87.6345V99.9603C79.2764 101.138 80.2532 102.1 81.449 102.1H88.4313C89.627 102.1 90.9295 103.009 91.3192 104.123L92.6484 107.272C93.1769 108.328 92.9153 109.868 92.0665 110.699L87.1394 115.513C86.2907 116.344 86.2907 117.7 87.1394 118.531L96.0701 127.261C96.9189 128.092 98.3068 128.092 99.1556 127.261L104.083 122.446C104.931 121.616 106.506 121.358 107.584 121.874L110.825 123.182C111.956 123.566 112.88 124.838 112.88 126.015V132.812Z" fill="#39487F"/>
<path d="M147.695 65.3219C148.544 66.1524 148.544 67.5085 147.695 68.3389L142.768 73.1484C141.919 73.9789 141.658 75.5189 142.186 76.5754L143.516 79.7239C143.911 80.8382 145.208 81.7475 146.403 81.7475H150.589L150.113 80.6175C149.585 79.561 149.847 78.0209 150.695 77.1904L155.622 72.381C156.471 71.5505 156.471 70.1944 155.622 69.3639L146.686 60.6333C145.838 59.8028 144.45 59.8028 143.601 60.6333L143.249 60.975L147.695 65.3219Z" fill="#CCCCCC"/>
<path d="M102.892 119.435L99.6518 118.126C98.5788 117.611 97.0041 117.868 96.15 118.699L91.5752 123.167L96.0646 127.55C96.9133 128.381 98.3012 128.381 99.15 127.55L104.077 122.736C104.317 122.504 104.616 122.32 104.942 122.184C104.899 121.033 103.997 119.808 102.892 119.435Z" fill="#CCCCCC"/>
<path d="M161.313 85.7896H155.564V96.2179C155.564 97.3953 154.587 98.3572 153.391 98.3572H146.409C145.213 98.3572 143.91 99.2665 143.521 100.381L142.191 103.529C141.663 104.586 141.925 106.126 142.773 106.956L147.7 111.771C148.549 112.602 148.549 113.958 147.7 114.788L139.122 123.172L143.606 127.555C144.455 128.386 145.843 128.386 146.692 127.555L155.622 118.825C156.471 117.994 156.471 116.638 155.622 115.808L150.695 110.993C149.846 110.163 149.585 108.623 150.113 107.566L151.442 104.418C151.838 103.303 153.135 102.394 154.33 102.394H161.313C162.508 102.394 163.485 101.432 163.485 100.255V87.9288C163.485 86.7514 162.508 85.7896 161.313 85.7896Z" fill="#CCCCCC"/>
<path d="M130.751 118.699C129.903 117.868 128.328 117.611 127.25 118.126L124.009 119.435C122.878 119.818 121.954 121.09 121.954 122.268V129.054C121.954 130.231 120.977 131.193 119.782 131.193H112.885V133.09C112.885 134.268 113.862 135.23 115.057 135.23H127.703C128.899 135.23 129.876 134.268 129.876 133.09V126.304C129.876 125.127 130.805 123.85 131.931 123.471L134.552 122.415L130.751 118.699Z" fill="#CCCCCC"/>
<path d="M117.674 112.323C128.868 112.323 137.943 103.456 137.943 92.5175C137.943 81.5793 128.868 72.7121 117.674 72.7121C106.48 72.7121 97.4053 81.5793 97.4053 92.5175C97.4053 103.456 106.48 112.323 117.674 112.323Z" fill="#DCE8FA"/>
<path d="M117.674 115.535C104.702 115.535 94.1436 105.211 94.1436 92.5175C94.1436 79.8238 104.697 69.5006 117.674 69.5006C130.651 69.5006 141.205 79.8238 141.205 92.5175C141.205 105.211 130.651 115.535 117.674 115.535ZM117.674 75.9237C108.3 75.9237 100.672 83.3665 100.672 92.5175C100.672 101.669 108.3 109.111 117.674 109.111C127.048 109.111 134.676 101.669 134.676 92.5175C134.681 83.3665 127.053 75.9237 117.674 75.9237Z" fill="#292E56"/>
<path d="M121.378 102.178C126.11 102.178 129.946 98.4297 129.946 93.8053C129.946 89.1809 126.11 85.4322 121.378 85.4322C116.646 85.4322 112.811 89.1809 112.811 93.8053C112.811 98.4297 116.646 102.178 121.378 102.178Z" fill="#DCE8FA"/>
<path d="M117.674 104.102C111.151 104.102 105.845 98.9039 105.845 92.5176C105.845 86.1313 111.151 80.9329 117.674 80.9329C124.197 80.9329 129.503 86.1313 129.503 92.5176C129.503 98.9039 124.197 104.102 117.674 104.102ZM117.674 87.356C114.749 87.356 112.368 89.6687 112.368 92.5176C112.368 95.3664 114.749 97.6792 117.674 97.6792C120.599 97.6792 122.98 95.3664 122.98 92.5176C122.98 89.674 120.599 87.356 117.674 87.356Z" fill="#292E56"/>
</g>
<defs>
<clipPath id="clip0_463_4062">
<rect width="184" height="140" fill="white"/>
</clipPath>
</defs>
</svg>
