<svg width="126" height="140" viewBox="0 0 126 140" fill="none" xmlns="http://www.w3.org/2000/svg">
<g clip-path="url(#clip0_397_379)">
<path d="M120.513 140H69.4696C66.771 140 64.5833 137.832 64.5833 135.158V40.5673C64.5833 37.8934 66.771 35.7258 69.4696 35.7258H120.513C123.212 35.7258 125.399 37.8934 125.399 40.5673V135.158C125.4 137.832 123.212 140 120.513 140Z" fill="#001A3F"/>
<path d="M116.831 140H65.7878C63.0892 140 60.9016 137.832 60.9016 135.158V40.5673C60.9016 37.8934 63.0892 35.7258 65.7878 35.7258H116.831C119.53 35.7258 121.717 37.8934 121.717 40.5673V135.158C121.717 137.832 119.53 140 116.831 140Z" fill="#2F5584"/>
<path d="M116.831 38.9949H100.026C98.3331 38.9949 96.7105 39.6609 95.5139 40.8466L93.3833 42.9577C92.2381 44.0924 90.3808 44.0924 89.2356 42.9577L87.105 40.8466C85.9084 39.6609 84.2859 38.9949 82.5934 38.9949H65.7877C64.9115 38.9949 64.2009 39.6991 64.2009 40.5673V135.158C64.2009 136.027 64.9115 136.731 65.7877 136.731H116.831C117.707 136.731 118.418 136.027 118.418 135.158V40.5673C118.418 39.6984 117.707 38.9949 116.831 38.9949Z" fill="#EEF6F5"/>
<path d="M91.3091 41.3394C91.9069 41.3394 92.3915 40.8592 92.3915 40.2668C92.3915 39.6745 91.9069 39.1943 91.3091 39.1943C90.7113 39.1943 90.2267 39.6745 90.2267 40.2668C90.2267 40.8592 90.7113 41.3394 91.3091 41.3394Z" fill="#001A3F"/>
<path d="M124.789 48.7297V48.449H123.969C123.301 48.449 122.758 48.9227 122.758 49.5067V51.4291C122.758 52.0131 123.301 52.4867 123.969 52.4867H124.789V52.2061C125.029 52.0131 125.18 51.7366 125.18 51.4291V49.5067C125.18 49.1992 125.03 48.9227 124.789 48.7297Z" fill="#2F5584"/>
<path d="M124.789 52.486C124.121 52.486 123.578 51.9487 123.578 51.2862V49.6481C123.578 48.9856 124.121 48.4483 124.789 48.4483C125.458 48.4483 126 48.9856 126 49.6481V51.2862C126 51.9494 125.458 52.486 124.789 52.486Z" fill="#001A3F"/>
<path d="M124.789 54.004V53.7233H123.969C123.301 53.7233 122.758 54.197 122.758 54.781V56.7033C122.758 57.2873 123.301 57.761 123.969 57.761H124.789V57.4803C125.029 57.2873 125.18 57.0109 125.18 56.7033V54.781C125.18 54.4734 125.03 54.1977 124.789 54.004Z" fill="#2F5584"/>
<path d="M124.789 57.761C124.121 57.761 123.578 57.2237 123.578 56.5612V54.9231C123.578 54.2606 124.121 53.7233 124.789 53.7233C125.458 53.7233 126 54.2606 126 54.9231V56.5612C126 57.2237 125.458 57.761 124.789 57.761Z" fill="#001A3F"/>
<path d="M124.789 62.679V62.3983H123.969C123.301 62.3983 122.758 62.872 122.758 63.456V74.9901C122.758 75.5741 123.301 76.0478 123.969 76.0478H124.789V75.7671C125.029 75.5741 125.18 75.2976 125.18 74.9901V63.4553C125.18 63.1484 125.03 62.872 124.789 62.679Z" fill="#2F5584"/>
<path d="M124.789 76.0471C124.121 76.0471 123.578 75.5097 123.578 74.8473V63.5981C123.578 62.9356 124.121 62.3983 124.789 62.3983C125.458 62.3983 126 62.9356 126 63.5981V74.848C126 75.5104 125.458 76.0471 124.789 76.0471Z" fill="#001A3F"/>
<path d="M116.697 38.9949L64.2009 91.0122V83.8545L109.474 38.9949H116.697Z" fill="#EEF6F5"/>
<path d="M118.418 41.62V48.7771L64.2009 102.499V95.3419L118.418 41.62Z" fill="#EEF6F5"/>
<path d="M118.418 70.2538V89.4561L70.7075 136.731H65.7877C64.9108 136.731 64.2009 136.027 64.2009 135.158V123.976L118.418 70.2538Z" fill="#EEF6F5"/>
<path d="M3.14619 34.1251H59.6564C61.3945 34.1251 62.8026 32.2539 62.8026 29.9471V8.63692C62.8026 6.33007 61.3936 4.45891 59.6564 4.45891H3.14619C1.40905 4.45891 0 6.33007 0 8.63692V29.9471C0 32.2539 1.40905 34.1251 3.14619 34.1251Z" fill="#DCECEB"/>
<path d="M2.17729 39.5993L11.7008 28.8981H0V38.2587C0 39.753 1.31776 40.5655 2.17729 39.5993Z" fill="#DCECEB"/>
<path d="M55.6001 10.801H7.20162C6.7226 10.801 6.33395 10.2849 6.33395 9.64874C6.33395 9.01261 6.7226 8.49651 7.20162 8.49651H55.6001C56.0791 8.49651 56.4678 9.01261 56.4678 9.64874C56.4678 10.2849 56.08 10.801 55.6001 10.801Z" fill="white"/>
<path d="M48.2684 17.2294H7.20165C6.72263 17.2294 6.33398 16.7133 6.33398 16.0772C6.33398 15.4411 6.72263 14.925 7.20165 14.925H48.2675C48.7465 14.925 49.1351 15.4411 49.1351 16.0772C49.136 16.7145 48.7474 17.2294 48.2684 17.2294Z" fill="white"/>
<path d="M55.6001 23.6591H7.20165C6.72263 23.6591 6.33398 23.143 6.33398 22.5068C6.33398 21.8707 6.72263 21.3546 7.20165 21.3546H55.6001C56.0792 21.3546 56.4678 21.8707 56.4678 22.5068C56.4678 23.143 56.0801 23.6591 55.6001 23.6591Z" fill="white"/>
<path d="M48.2684 30.0876H7.20165C6.72263 30.0876 6.33398 29.5715 6.33398 28.9353C6.33398 28.2992 6.72263 27.7831 7.20165 27.7831H48.2675C48.7465 27.7831 49.1351 28.2992 49.1351 28.9353C49.136 29.5715 48.7474 30.0876 48.2684 30.0876Z" fill="white"/>
<path d="M46.5836 79.8995H23.6338C22.2617 79.8995 21.15 78.7973 21.15 77.4384V64.8855C21.15 63.5259 22.2617 62.4244 23.6338 62.4244H46.5836C47.9557 62.4244 49.0674 63.5266 49.0674 64.8855V77.4384C49.0674 78.7973 47.9557 79.8995 46.5836 79.8995Z" fill="#DCECEB"/>
<path d="M47.3485 83.1234L39.8301 76.8197H49.0681V82.3337C49.0674 83.2146 48.0271 83.6926 47.3485 83.1234Z" fill="#DCECEB"/>
<path d="M45.7309 66.1602H24.4864C24.1083 66.1602 23.8015 65.8562 23.8015 65.4815C23.8015 65.1067 24.1083 64.8027 24.4864 64.8027H45.7302C46.1084 64.8027 46.4152 65.1067 46.4152 65.4815C46.4159 65.8562 46.1091 66.1602 45.7309 66.1602Z" fill="white"/>
<path d="M45.7309 69.9469H29.7886C29.4105 69.9469 29.1036 69.6429 29.1036 69.2682C29.1036 68.8935 29.4105 68.5895 29.7886 68.5895H45.7309C46.1091 68.5895 46.4159 68.8935 46.4159 69.2682C46.4159 69.6429 46.1091 69.9469 45.7309 69.9469Z" fill="white"/>
<path d="M45.7309 73.7337H24.4864C24.1082 73.7337 23.8014 73.4297 23.8014 73.0549C23.8014 72.6802 24.1082 72.3762 24.4864 72.3762H45.7302C46.1084 72.3762 46.4152 72.6802 46.4152 73.0549C46.4159 73.4297 46.1091 73.7337 45.7309 73.7337Z" fill="white"/>
<path d="M45.7309 77.5211H29.7886C29.4105 77.5211 29.1036 77.2171 29.1036 76.8424C29.1036 76.4676 29.4105 76.1636 29.7886 76.1636H45.7309C46.1091 76.1636 46.4159 76.4676 46.4159 76.8424C46.4159 77.2171 46.1091 77.5211 45.7309 77.5211Z" fill="white"/>
<path d="M49.8957 91.0295C49.7432 90.972 49.5834 90.9168 49.4212 90.936C49.259 90.9528 49.0968 91.0631 49.0581 91.2311C49.0145 91.4302 49.1549 91.6197 49.3002 91.7564C49.6197 92.0563 49.9999 92.2674 50.38 92.4713C51.4089 93.0231 52.4572 93.5388 53.5177 94.0186C53.554 93.8627 53.7113 93.4981 53.6629 93.3469C53.6145 93.2006 53.3167 93.0303 53.2053 92.9391C52.8664 92.6632 52.5153 92.4065 52.1522 92.1714C51.4331 91.7036 50.6778 91.3438 49.8957 91.0295Z" fill="#39706D"/>
<path d="M53.5443 89.5806C53.2611 89.072 52.9245 88.5635 52.4209 88.2684C52.1764 88.1268 51.8084 88.0669 51.6535 88.302C51.5252 88.4963 51.6389 88.753 51.7503 88.9545C52.4234 90.1707 53.0988 91.3846 53.7719 92.6009C53.9486 92.5049 54.4982 92.325 54.583 92.1427C54.6725 91.9508 54.4111 91.4854 54.3409 91.2959C54.1157 90.7033 53.7792 90.1636 53.5443 89.5806Z" fill="#39706D"/>
<path d="M56.6045 88.3451C56.5924 88.1316 56.5706 87.9133 56.4689 87.7238C56.3697 87.5343 56.1711 87.3808 55.9557 87.3952C55.7523 87.4072 55.5804 87.5655 55.4957 87.7478C55.4109 87.9301 55.394 88.1364 55.3819 88.3379C55.3141 89.5326 55.3456 90.7297 55.377 91.9244C55.377 91.946 56.3164 92.0755 56.3915 92.0035C56.5464 91.8524 56.5077 91.0344 56.5295 90.8137C56.6069 89.9932 56.6554 89.168 56.6045 88.3451Z" fill="#39706D"/>
<path d="M60.563 89.998C60.6283 89.7725 60.6816 89.5326 60.638 89.3023C60.5944 89.0696 60.4371 88.8465 60.2095 88.7842C60.0085 88.7314 59.7906 88.8105 59.6333 88.9425C59.4735 89.0744 59.3597 89.2519 59.2508 89.4247C58.5511 90.5306 57.8514 91.6365 57.1517 92.7424C57.3696 92.8983 57.5851 93.0615 57.8078 93.2102C58.0499 93.3709 58.1032 93.3565 58.3332 93.1766C58.6842 92.8983 59.0111 92.5841 59.304 92.2458C59.8681 91.5933 60.3233 90.8305 60.563 89.998Z" fill="#39706D"/>
<path d="M58.4276 93.1094C57.8248 92.277 56.8442 91.7229 55.8128 91.6365C55.1592 91.5813 54.4667 91.7205 53.9607 92.1355C53.3724 92.6177 53.123 93.3925 52.9996 94.141C52.8495 95.0598 52.8543 96.017 53.1473 96.8998C53.4426 97.7826 54.0503 98.5838 54.8928 98.9965C55.7354 99.4091 56.8103 99.3803 57.5633 98.8237C58.4736 98.1472 58.5898 97.0773 58.9215 96.0865C59.2556 95.0886 59.0522 93.9755 58.4276 93.1094Z" fill="#51A09B"/>
<path d="M58.7738 95.5204C58.4566 95.4172 58.1128 95.4244 57.7836 95.4796C56.9846 95.6116 56.2365 96.029 55.7063 96.6383C55.1761 97.2476 54.871 98.0417 54.8565 98.8453C54.8493 99.234 54.9824 99.709 55.3625 99.7977C55.624 99.8601 55.883 99.7066 56.1058 99.553C57.0645 98.8957 57.9555 98.1448 58.7641 97.3148C59.3355 96.7343 59.856 95.8706 58.7738 95.5204Z" fill="#39706D"/>
<path d="M61.6863 97.0653C60.7324 96.3768 59.6309 95.7699 58.4518 95.8106C57.4422 95.8442 56.4738 96.3816 55.8782 97.19C55.2826 97.9985 55.0623 99.0564 55.2391 100.04C55.5756 101.902 57.1856 103.264 58.815 104.253C60.6889 105.39 62.7322 106.253 64.8555 106.81C65.8457 107.069 66.802 106.961 67.2112 105.91C67.4654 105.255 67.4678 104.344 67.2088 103.686C66.5914 102.117 65.3107 100.515 64.18 99.2843C63.4271 98.4615 62.5894 97.7178 61.6863 97.0653Z" fill="#51A09B"/>
<path d="M55.9871 100.064C56.4084 100.774 56.8636 101.436 57.4543 102.022C58.0402 102.604 58.7036 103.106 59.4081 103.538C60.9479 104.485 62.662 105.059 64.3156 105.764C64.3495 105.778 64.3253 105.833 64.2914 105.824C62.5192 105.294 60.7494 104.603 59.1829 103.617C57.8441 102.772 56.5028 101.609 55.8491 100.143C55.808 100.052 55.9339 99.9728 55.9871 100.064Z" fill="#4C5980"/>
<path d="M57.7787 101.036C57.9773 101.184 58.1177 101.398 58.2823 101.58C58.4542 101.77 58.6382 101.947 58.8246 102.122C59.2048 102.475 59.6163 102.789 60.0642 103.055C60.1223 103.091 60.0715 103.178 60.011 103.147C59.5437 102.904 59.1006 102.612 58.6988 102.273C58.4978 102.105 58.3114 101.918 58.1346 101.726C57.9627 101.542 57.7691 101.347 57.6819 101.107C57.665 101.057 57.7352 101.002 57.7787 101.036Z" fill="#4C5980"/>
<path d="M53.7913 93.5365C53.83 93.4453 53.9535 93.4789 53.9414 93.5772C53.8905 93.9371 53.8058 94.2849 53.7864 94.6496C53.7695 94.9734 53.7792 95.2973 53.8155 95.6187C53.8905 96.3144 54.1036 97.0005 54.4328 97.6195C54.4643 97.6794 54.3772 97.7322 54.3408 97.6722C53.9607 97.0485 53.7162 96.3672 53.6169 95.6451C53.5249 94.9734 53.5298 94.1722 53.7913 93.5365Z" fill="#4C5980"/>
<path d="M62.8369 81.3416C63.0839 81.2361 63.3768 81.1449 63.6092 81.2768C63.8344 81.404 63.9119 81.7039 63.8489 81.9533C63.786 82.2028 63.6141 82.4091 63.4373 82.5963C62.5682 83.5103 61.4254 84.1628 60.1907 84.4482C60.0019 84.1628 59.7162 83.6974 59.9002 83.3951C60.0914 83.0832 60.503 82.7978 60.7863 82.5699C61.4085 82.0709 62.1009 81.6535 62.8369 81.3416Z" fill="#39706D"/>
<path d="M57.818 79.6912C57.8616 79.2258 57.9488 78.722 58.295 78.4029C58.4306 78.2782 58.6242 78.187 58.7986 78.2494C59.0116 78.3238 59.0915 78.5757 59.1302 78.7964C59.3772 80.1542 59.2077 81.5456 59.0382 82.9154C59.0382 82.9202 58.0335 83.0233 57.9584 82.9873C57.7478 82.8842 57.7962 82.2628 57.7817 82.0373C57.7333 81.2553 57.7454 80.4684 57.818 79.6912Z" fill="#39706D"/>
<path d="M54.4479 80.003C54.4116 79.7871 54.3874 79.564 54.4528 79.3553C54.5157 79.1466 54.6852 78.9571 54.9031 78.9307C55.213 78.8923 55.4599 79.1754 55.6318 79.4345C56.3921 80.5836 56.9513 81.8646 57.2733 83.2032C56.8739 83.3568 56.4913 83.6614 56.1451 83.3304C55.8401 83.0377 55.5786 82.6899 55.351 82.3348C54.9079 81.6439 54.552 80.8211 54.4479 80.003Z" fill="#39706D"/>
<path d="M52.0801 83.1936C51.8913 82.9993 51.7121 82.7834 51.6298 82.5267C51.5475 82.27 51.5814 81.9606 51.7751 81.771C51.9615 81.5887 52.2593 81.5551 52.5111 81.6223C52.7653 81.6895 52.9856 81.843 53.1963 81.9965C54.1671 82.7018 55.0774 83.4839 55.9877 84.2659C56.0023 84.2779 55.7771 84.8801 55.7408 84.9233C55.6052 85.0816 55.5253 85.0312 55.3026 84.9832C54.8958 84.8945 54.4988 84.7673 54.1163 84.6018C53.3536 84.2683 52.6539 83.791 52.0801 83.1936Z" fill="#39706D"/>
<path d="M55.3341 86.5833C54.9951 85.7341 55.1186 84.7265 55.6149 83.9565C56.1136 83.1864 56.9634 82.6634 57.8738 82.5171C58.4137 82.4307 58.9995 82.4787 59.462 82.769C59.8397 83.0065 60.1084 83.3903 60.273 83.8053C60.4352 84.218 60.503 84.6642 60.5418 85.1056C60.5781 85.5062 60.5878 85.9332 60.3941 86.2858C60.2173 86.6073 59.8978 86.8232 59.5903 87.0271C59.1424 87.3222 58.6945 87.6173 58.2466 87.9123C57.1135 88.6584 55.7747 87.6868 55.3341 86.5833Z" fill="#51A09B"/>
<path d="M57.5784 87.2143C57.9246 86.5905 58.542 86.1203 59.2392 85.9524C59.6581 85.8517 60.1181 85.8589 60.4958 86.0652C60.8734 86.2715 61.1398 86.7033 61.0647 87.1231C60.9896 87.5453 60.6192 87.8452 60.2754 88.1043C59.8614 88.4161 59.445 88.728 58.9753 88.9487C58.634 89.1094 57.6486 89.4909 57.3508 89.095C57.0191 88.6488 57.346 87.6317 57.5784 87.2143Z" fill="#39706D"/>
<path d="M58.2054 92.4104C57.6946 91.3405 57.2612 90.1818 57.3556 89.0015C57.4501 87.8212 58.203 86.6217 59.3627 86.3363C60.1883 86.1323 61.0768 86.4202 61.7595 86.9264C62.4399 87.4326 62.9459 88.1331 63.401 88.8456C65.0885 91.482 66.2651 94.4399 66.8462 97.5081C66.9479 98.0503 67.0278 98.6356 66.7808 99.1298C65.3863 101.92 60.3093 95.9224 59.5588 94.8021C59.0504 94.0393 58.6001 93.238 58.2054 92.4104Z" fill="#51A09B"/>
<path d="M63.8974 97.4697C63.6553 97.1698 63.2751 96.9419 62.9846 96.6877C62.682 96.4238 62.3842 96.1503 62.0985 95.8672C61.5223 95.2915 60.9921 94.6725 60.5151 94.0128C59.5637 92.6982 58.847 91.2373 58.2926 89.7187C58.2757 89.6732 58.2054 89.6899 58.2176 89.7379C58.6485 91.3452 59.4281 92.8398 60.4159 94.1856C60.8952 94.8405 61.4279 95.4594 62.0041 96.0304C62.3019 96.3254 62.6118 96.6085 62.9386 96.8748C63.217 97.1003 63.5269 97.3977 63.8659 97.5249C63.8998 97.5369 63.9167 97.4913 63.8974 97.4697Z" fill="#4C5980"/>
<path d="M62.7328 94.7493C62.636 94.6126 62.4931 94.507 62.3672 94.3967C62.2365 94.2815 62.1058 94.1664 61.9823 94.044C61.7257 93.7946 61.486 93.5307 61.2632 93.2524C60.8129 92.691 60.4134 92.0769 60.0914 91.434C60.0696 91.3908 59.9922 91.422 60.0091 91.4676C60.2803 92.1465 60.6313 92.775 61.0841 93.3507C61.3116 93.6386 61.5562 93.9121 61.8152 94.1688C62.0549 94.4063 62.3358 94.7205 62.6578 94.8429C62.711 94.8645 62.7643 94.7949 62.7328 94.7493Z" fill="#4C5980"/>
<path d="M76.7846 127.154C72.2863 123.249 68.8363 118.168 66.8825 112.566C64.9287 106.965 64.5195 101.099 65.6235 95.2747C65.8293 94.1952 67.1415 93.2548 68.1971 92.9189C69.2527 92.5831 70.3785 92.5615 71.4873 92.5447C77.8305 92.4607 84.1907 92.5207 90.4903 93.262C92.9525 93.5522 95.4413 93.9553 97.6856 95.0036C98.9422 95.5913 100.458 96.6781 101.325 97.7576C102.087 103.961 100.082 110.148 96.6228 115.373C93.1631 120.598 87.7956 124.551 81.7478 126.329C80.1184 126.804 78.46 127.416 76.7846 127.154Z" fill="#51A09B"/>
<path d="M99.0027 104.523C95.0273 103.069 90.914 102.064 86.7328 101.406C82.5782 100.751 78.3535 100.466 74.1481 100.552C72.9739 100.576 71.7997 100.632 70.6279 100.716C69.4512 100.799 68.2359 100.857 67.0907 101.15C66.9648 101.181 66.9963 101.368 67.1222 101.37C68.1753 101.378 69.2285 101.226 70.2792 101.15C71.313 101.073 72.3493 101.023 73.3879 100.991C75.4821 100.929 77.5787 100.96 79.6681 101.09C83.8444 101.349 88.0063 101.989 92.0615 103.018C94.3567 103.601 96.6252 104.268 98.8647 105.041C99.194 105.154 99.3247 104.64 99.0027 104.523Z" fill="#39706D"/>
<path d="M78.7505 100.975C79.1887 99.3985 80.7189 98.187 82.3652 98.1102C84.0115 98.0335 85.6506 99.0962 86.2389 100.624C86.8248 102.152 86.3139 104.026 85.0332 105.053C82.1303 107.375 77.7603 104.535 78.7505 100.975Z" fill="#39706D"/>
<path d="M79.4478 101.162C79.8061 99.8758 81.053 98.8875 82.3991 98.8227C83.7428 98.7603 85.0816 99.6287 85.5586 100.874C86.0379 102.121 85.6215 103.649 84.5732 104.489C82.2078 106.387 78.6392 104.069 79.4478 101.162Z" fill="#FFD075"/>
<path d="M101.559 98.2686C101.547 98.1894 101.414 98.1894 101.399 98.2686C101.334 98.6332 101.378 99.0362 101.375 99.4057L101.368 100.521C101.366 100.893 101.363 101.265 101.368 101.637C101.37 101.838 101.373 102.037 101.375 102.239C101.378 102.388 101.354 102.543 101.438 102.673C101.443 102.678 101.45 102.678 101.453 102.673C101.537 102.546 101.518 102.388 101.523 102.239L101.54 101.637C101.549 101.265 101.554 100.893 101.557 100.521L101.569 99.4057C101.569 99.0362 101.619 98.6332 101.559 98.2686Z" fill="white"/>
<path d="M68.4828 92.7894C67.294 92.8853 66.3256 93.7082 65.776 94.7205C65.4444 95.3299 65.2676 96.0112 65.1684 96.6925C65.1151 97.0571 65.0812 97.4265 65.0691 97.796C65.057 98.1246 64.9722 98.5804 65.0933 98.8875C65.0981 98.9019 65.1224 98.9115 65.132 98.8923C65.241 98.6476 65.1974 98.3309 65.2119 98.0671C65.2313 97.7408 65.2531 97.4146 65.287 97.0907C65.3645 96.3782 65.5146 95.6537 65.8293 95.0036C66.3305 93.9697 67.2844 93.0797 68.4828 92.9957C68.6159 92.9861 68.6159 92.7798 68.4828 92.7894Z" fill="white"/>
<path d="M98.044 94.9484C96.5502 94.1232 94.8893 93.6914 93.2091 93.4251C91.4127 93.142 89.5896 92.9909 87.7787 92.8421C83.9486 92.5255 80.1063 92.3599 76.2617 92.3503C74.09 92.3432 71.9159 92.3815 69.7466 92.5111C69.6594 92.5159 69.657 92.6478 69.7466 92.6454C77.281 92.4679 84.8589 92.5351 92.3448 93.5186C94.2768 93.7729 96.2137 94.1855 97.9326 95.1355C98.0561 95.2051 98.1674 95.0156 98.044 94.9484Z" fill="white"/>
<path d="M97.1167 108.61C96.2209 111.679 94.8215 114.574 92.8266 117.093C90.8752 119.552 88.4203 121.598 85.6506 123.098C84.0454 123.966 82.3531 124.597 80.6196 125.161C80.5276 125.189 80.5663 125.324 80.6583 125.302C83.7694 124.611 86.74 122.994 89.2168 121.035C91.754 119.029 93.8555 116.496 95.3663 113.651C96.2064 112.07 96.8698 110.395 97.2862 108.656C97.3152 108.546 97.1482 108.5 97.1167 108.61Z" fill="#4C5980"/>
<path d="M94.2453 111.352C93.8095 112.252 93.4415 113.171 92.9452 114.042C92.4319 114.944 91.8509 115.807 91.2044 116.62C89.9431 118.211 88.4517 119.595 86.7909 120.766C85.8515 121.428 84.8588 122.006 83.8202 122.503C83.7476 122.539 83.8105 122.642 83.8832 122.611C87.6431 120.915 90.805 118.041 92.9065 114.521C93.4851 113.552 94.0734 112.499 94.3881 111.41C94.4099 111.328 94.284 111.271 94.2453 111.352Z" fill="#4C5980"/>
<path d="M81.835 100.053C81.91 99.9022 82.0843 99.8039 82.2514 99.8231C82.4209 99.8423 82.5686 99.9886 82.5758 100.157C82.5807 100.267 82.5298 100.377 82.4475 100.456C82.3676 100.533 82.2587 100.581 82.1497 100.603C81.8229 100.667 81.7091 100.305 81.835 100.053Z" fill="white"/>
<path d="M80.714 101.195C80.7189 101.082 80.7988 100.972 80.9101 100.939C81.0191 100.905 81.1522 100.955 81.2031 101.058C81.237 101.126 81.2345 101.21 81.2055 101.279C81.1764 101.349 81.1232 101.406 81.0602 101.45C80.8738 101.579 80.7043 101.385 80.714 101.195Z" fill="white"/>
<path d="M86.7691 67.8452C87.1153 65.3527 88.137 62.9538 89.701 60.9698C89.8245 60.8139 90.115 60.9794 90.1586 61.1738C90.2022 61.3681 90.0908 61.5576 89.9891 61.7279C88.8512 63.6063 88.2314 65.7869 88.2121 67.9772C87.769 68.0491 87.1758 68.0251 86.7691 67.8452Z" fill="#39706D"/>
<path d="M88.8706 60.8859C88.5898 60.3893 88.5752 59.7656 88.7883 59.2378C89.0013 58.71 89.4299 58.2806 89.9407 58.0215C90.4927 57.7408 91.2069 57.6689 91.7105 58.0263C92.0107 58.2398 92.202 58.5805 92.2964 58.9355C92.4659 59.5832 92.323 60.3053 91.9187 60.8427C91.1609 61.8454 89.5582 62.1069 88.8706 60.8859Z" fill="#FFD075"/>
<path d="M91.9647 59.0507C91.9357 58.9595 91.7977 58.9979 91.8219 59.0891C91.9938 59.7272 91.7323 60.4828 91.1706 60.8523C90.8777 61.0466 90.5242 61.1282 90.1731 61.1066C89.9988 61.0946 89.8269 61.0538 89.6623 60.9938C89.5775 60.9626 89.4952 60.9219 89.4178 60.8787C89.3596 60.8451 89.3161 60.8139 89.2459 60.8283C89.2362 60.8307 89.2289 60.8403 89.2289 60.8499C89.2386 61.0034 89.4952 61.0994 89.6163 61.1521C89.7858 61.2241 89.9698 61.2649 90.1538 61.2793C90.5435 61.3129 90.9527 61.2169 91.2796 60.9986C91.909 60.5788 92.1899 59.768 91.9647 59.0507Z" fill="#EB9921"/>
<path d="M69.1363 80.5691C69.0104 78.0551 69.928 75.5434 71.4557 73.5115C72.9834 71.4796 75.097 69.9059 77.4018 68.764C80.8954 67.0343 84.9459 66.2643 88.8026 66.9528C92.6569 67.6412 96.2716 69.8627 98.2617 73.1492C99.9758 75.98 100.416 79.3793 100.373 82.6658C100.358 83.7046 100.286 84.7937 99.7289 85.6813C99.0945 86.696 97.7436 87.5237 96.6057 87.9579C92.7877 89.4188 88.7881 89.5028 84.6965 89.2221C81.7525 89.0206 79.4961 88.9367 76.6077 88.3465C75.4214 88.1042 73.0972 87.3965 72.1409 86.6601C71.2257 85.9548 70.6664 85.2423 70.1362 84.2323C69.5431 83.1 69.1993 81.8406 69.1363 80.5691Z" fill="#51A09B"/>
<path d="M73.7874 81.5575C73.8891 79.4824 74.1554 77.4169 74.5839 75.3826C74.7631 74.5238 75.0028 73.6194 75.6444 73.0173C76.3804 72.3264 77.4723 72.192 78.4818 72.1057C83.738 71.6475 89.1539 71.5179 94.1582 73.1756C94.7441 73.3699 95.347 73.605 95.7416 74.0752C96.2984 74.7397 96.2984 75.6921 96.2452 76.5557C96.1411 78.2733 95.9474 79.9838 95.669 81.6822C95.4729 82.8769 95.1702 84.1675 94.2091 84.916C93.4658 85.4966 92.4707 85.6285 91.5265 85.6933C89.4686 85.8324 87.401 85.7388 85.3456 85.5877C82.7381 85.3958 80.1379 85.1055 77.5522 84.7193C76.6733 84.5873 75.3272 84.6257 74.5912 84.086C73.8286 83.5246 73.7462 82.4067 73.7874 81.5575Z" fill="#39706D"/>
<path d="M80.3533 75.4258C79.7432 75.3682 79.1355 75.6849 78.7264 76.1191C78.2639 76.6085 78.0025 77.2562 77.833 77.8943C77.7942 78.0383 78.017 78.1438 78.0824 77.9999C78.4867 77.1243 79.0193 75.7665 80.2323 75.8912C80.6995 75.9392 81.0845 76.2798 81.2999 76.6757C81.4331 76.918 81.5033 77.1938 81.5324 77.4673C81.5638 77.7672 81.5348 78.0575 81.5445 78.3549C81.5542 78.6236 81.9778 78.7076 82.0384 78.4221C82.2877 77.2514 81.7333 75.5602 80.3533 75.4258Z" fill="white"/>
<path d="M90.759 77.4217C90.5581 76.9132 90.1998 76.4766 89.7107 76.2127C88.7035 75.6681 87.4107 75.908 86.7062 76.8124C86.3454 77.2754 86.0985 77.9375 86.2607 78.5229C86.3091 78.7004 86.5561 78.6524 86.5706 78.4821C86.619 77.9039 86.7425 77.3642 87.1613 76.93C87.5705 76.5078 88.154 76.3158 88.7374 76.3806C89.3185 76.4454 89.8463 76.7572 90.1465 77.2586C90.2893 77.4985 90.3813 77.7648 90.4152 78.0431C90.4491 78.3357 90.3934 78.5828 90.3499 78.8707C90.3135 79.1034 90.6428 79.2953 90.7687 79.0458C91.0108 78.5612 90.9503 77.9087 90.759 77.4217Z" fill="white"/>
<path d="M88.4469 81.6055C88.4372 81.5431 88.3719 81.5119 88.3162 81.5071C87.7206 81.452 87.1226 81.4088 86.5246 81.3776C86.2317 81.3608 85.9387 81.3488 85.6458 81.3392C85.5053 81.3344 85.3649 81.332 85.2221 81.3344C85.0744 81.3368 84.917 81.3224 84.7766 81.3656C84.7669 81.368 84.7645 81.3752 84.7572 81.38C84.7161 81.38 84.6725 81.3968 84.6434 81.4424C84.4933 81.6823 84.3481 81.927 84.2028 82.1717C84.1302 82.294 84.0575 82.4163 83.9873 82.5387C83.968 82.5723 83.9462 82.6059 83.9268 82.6418C83.9026 82.5099 83.8687 82.3804 83.8445 82.2532C83.8009 82.0181 83.7622 81.783 83.7234 81.5479C83.6871 81.3224 83.6556 81.0945 83.6169 80.8666C83.5975 80.7539 83.5782 80.6411 83.5588 80.5284C83.5394 80.4156 83.5322 80.3077 83.4717 80.2093C83.4474 80.1733 83.4014 80.1709 83.3724 80.1949C83.353 80.1901 83.3312 80.1901 83.3119 80.1973C83.2392 80.2189 83.1956 80.2741 83.1448 80.3269C83.1012 80.3724 83.0649 80.4204 83.0262 80.4708C82.9487 80.5692 82.8712 80.6675 82.7962 80.7659C82.7187 80.8666 82.634 80.965 82.5638 81.0705C82.5226 81.1329 82.4717 81.2049 82.4403 81.2792C82.2079 81.2409 81.9657 81.2385 81.7333 81.2217C81.4501 81.2001 81.1644 81.1761 80.8811 81.1545C80.6075 81.1353 80.3339 81.1161 80.0604 81.0969C79.7989 81.0777 79.5084 81.025 79.2469 81.0801C79.1525 81.0993 79.1718 81.2217 79.2469 81.2505C79.4842 81.3392 79.7771 81.332 80.0289 81.3512C80.3025 81.3728 80.5761 81.3944 80.8496 81.416C81.1232 81.4376 81.3968 81.4568 81.6704 81.4784C81.9391 81.4975 82.2224 81.5479 82.4911 81.5311C82.5444 81.5287 82.5831 81.4904 82.6001 81.4496C82.6775 81.4064 82.7453 81.3272 82.801 81.2672C82.8857 81.1761 82.9608 81.0753 83.0407 80.9794C83.1158 80.8858 83.1932 80.7899 83.2683 80.6963C83.2925 80.6675 83.3143 80.6363 83.3385 80.6051C83.3506 80.6987 83.3651 80.7923 83.3748 80.8762C83.3966 81.1065 83.4329 81.3368 83.4668 81.5671C83.5007 81.795 83.537 82.0205 83.5782 82.2484C83.6169 82.4739 83.6314 82.7354 83.7162 82.9513C83.7428 83.0209 83.8203 83.0473 83.8808 83.0305C83.905 83.0353 83.9341 83.0329 83.9583 83.0113C84.0648 82.9273 84.1423 82.7906 84.2149 82.6754C84.29 82.5555 84.365 82.4355 84.4401 82.3132C84.5902 82.0709 84.7379 81.831 84.8807 81.5839C84.8831 81.5791 84.8831 81.5719 84.8855 81.5671C84.9848 81.5839 85.0889 81.5815 85.1882 81.5887C85.3407 81.6007 85.4932 81.6079 85.6458 81.6127C85.9387 81.6223 86.2317 81.6367 86.5246 81.6511C87.1226 81.6823 87.7206 81.7278 88.3162 81.7806C88.3791 81.7854 88.4276 81.7326 88.4469 81.6823C88.4566 81.6535 88.4518 81.6319 88.4469 81.6055Z" fill="#FFD075"/>
<path d="M97.7196 86.0412C96.7971 86.5449 95.8699 86.9959 94.8676 87.3318C93.8798 87.6628 92.8605 87.9003 91.8315 88.0635C89.626 88.4137 87.3768 88.4161 85.1518 88.2914C83.8445 88.217 82.5395 88.109 81.2321 88.0635C81.1886 88.0611 81.1789 88.133 81.2225 88.1378C83.5273 88.4785 85.8733 88.6464 88.2048 88.6104C90.3692 88.5792 92.5458 88.3226 94.6158 87.67C95.727 87.3198 96.8528 86.8664 97.8358 86.2379C97.9617 86.1611 97.8503 85.9692 97.7196 86.0412Z" fill="#4C5980"/>
<path d="M79.7916 87.79C79.5253 87.742 79.2444 87.7468 78.9733 87.718C78.6997 87.6869 78.4261 87.6461 78.155 87.5933C77.8959 87.5429 77.6344 87.4877 77.3778 87.423C77.1066 87.3558 76.8282 87.2311 76.5546 87.1951C76.482 87.1855 76.4312 87.2766 76.5014 87.3198C76.7241 87.4542 77.0195 87.5141 77.2688 87.5861C77.5424 87.6653 77.8184 87.7348 78.0993 87.7876C78.368 87.8404 78.6392 87.8812 78.9103 87.9148C79.1839 87.9483 79.4865 88.0011 79.7625 87.9747C79.8642 87.9651 79.9054 87.8092 79.7916 87.79Z" fill="#4C5980"/>
<path d="M74.7655 70.1938C71.5915 72.0985 69.4513 75.4211 69.0978 79.0866C68.9888 80.2045 69.0179 81.3728 69.2915 82.4644C69.3181 82.5699 69.4658 82.5219 69.4513 82.4212C69.1874 80.4804 69.2213 78.5805 69.8265 76.6997C70.3737 75.0084 71.3276 73.4611 72.5817 72.1921C73.2693 71.4964 74.0416 70.8943 74.8817 70.3905C75.01 70.3161 74.8938 70.117 74.7655 70.1938Z" fill="white"/>
<path d="M96.3783 70.5992C91.9889 66.8352 85.7716 65.6382 80.2783 67.4086C79.518 67.6533 78.7723 67.9531 78.0533 68.3034C77.3439 68.6464 76.6128 69.0231 76.0099 69.5341C75.947 69.5868 76.0269 69.6804 76.0947 69.6444C76.7314 69.3109 77.3294 68.9151 77.9734 68.5913C78.6077 68.2746 79.2614 67.9963 79.9296 67.7612C81.2757 67.2886 82.6824 66.984 84.106 66.8664C86.8805 66.6337 89.6938 67.1231 92.2359 68.2506C93.6788 68.8911 95.0177 69.738 96.233 70.7431C96.3323 70.8271 96.48 70.6855 96.3783 70.5992Z" fill="white"/>
</g>
<defs>
<clipPath id="clip0_397_379">
<rect width="126" height="140" fill="white"/>
</clipPath>
</defs>
</svg>
