<svg width="152" height="140" viewBox="0 0 152 140" fill="none" xmlns="http://www.w3.org/2000/svg">
<g clip-path="url(#clip0_397_324)">
<path d="M8.79697 117.716C0.0138975 106.889 -2.44787 91.2789 2.57302 78.2744C6.13701 69.0505 12.959 61.5239 19.635 54.2269C27.4271 45.7125 35.2192 37.1982 43.0113 28.6838C49.649 21.4285 56.3911 14.0897 64.6804 8.79956C75.122 2.13902 87.8133 -0.939086 100.14 0.253898C112.466 1.44688 124.35 6.91096 133.241 15.5331C150.515 32.2871 154.921 59.0336 150.258 82.6429C146.357 102.412 135.932 121.862 118.432 131.84C107.796 137.906 95.296 140.077 83.0532 139.997C71.8084 139.923 59.6734 138.765 48.898 135.416C40.254 132.727 30.852 132.345 22.6357 128.467C17.3123 125.955 12.5105 122.297 8.79697 117.716Z" fill="#EEF6F5"/>
<path d="M23.4658 79.1213C47.089 85.6427 71.8561 88.0078 96.286 86.0705C84.4396 102.974 72.023 116.991 60.6009 134.155C59.3978 135.964 56.1294 138.816 54.1161 139.633C52.6488 140.228 51.0111 140.148 49.4291 140.061C44.2169 139.772 39.0013 139.48 33.7892 139.191C29.2099 138.937 24.568 138.673 20.1278 137.425C18.3302 136.92 16.1779 136.684 16.0457 134.607C15.8997 132.273 16.7238 129.494 17.0367 127.168C18.4032 116.956 19.7697 106.741 21.1361 96.5292C21.915 90.7277 22.6904 84.9263 23.4658 79.1213Z" fill="white"/>
<path d="M105.591 70.0017C105.81 69.9183 106.039 69.8383 106.272 69.8661C106.505 69.8904 106.738 70.0504 106.794 70.2939C106.856 70.5826 106.655 70.8573 106.446 71.0556C105.987 71.4904 105.441 71.7964 104.895 72.0921C103.417 72.892 101.912 73.6398 100.389 74.3354C100.337 74.1094 100.111 73.5807 100.18 73.3616C100.25 73.1494 100.678 72.9025 100.837 72.7703C101.324 72.3703 101.828 71.9982 102.35 71.6573C103.383 70.9791 104.468 70.4574 105.591 70.0017Z" fill="#39706D"/>
<path d="M100.351 67.901C100.758 67.1636 101.241 66.4263 101.964 65.9985C102.315 65.7933 102.844 65.7063 103.066 66.0472C103.251 66.3289 103.087 66.701 102.927 66.9932C101.961 68.7566 100.99 70.5165 100.024 72.2799C99.77 72.1408 98.9807 71.8799 98.859 71.6156C98.7304 71.3373 99.1059 70.6626 99.2067 70.3878C99.5301 69.5287 100.013 68.7462 100.351 67.901Z" fill="#39706D"/>
<path d="M95.9557 66.1098C95.9731 65.8002 96.0044 65.4837 96.1504 65.2089C96.293 64.9342 96.5781 64.7116 96.8875 64.7324C97.1796 64.7498 97.4265 64.9794 97.5482 65.2437C97.6699 65.5081 97.6942 65.8072 97.7116 66.0993C97.809 67.8314 97.7638 69.567 97.7186 71.2991C97.7186 71.3304 96.3695 71.5182 96.2617 71.4138C96.0391 71.1947 96.0948 70.0087 96.0635 69.6887C95.9522 68.4992 95.8827 67.3027 95.9557 66.1098Z" fill="#39706D"/>
<path d="M90.2707 68.5062C90.1768 68.1792 90.1003 67.8314 90.1629 67.4975C90.2255 67.1602 90.4515 66.8367 90.7783 66.7463C91.0669 66.6698 91.3799 66.7845 91.6059 66.9758C91.8354 67.1671 91.9988 67.4245 92.1553 67.6749C93.1601 69.2783 94.165 70.8817 95.1699 72.4851C94.8569 72.7112 94.5475 72.9477 94.2276 73.1633C93.8799 73.3964 93.8034 73.3755 93.4731 73.1147C92.9689 72.7112 92.4995 72.2556 92.0788 71.7652C91.2686 70.8191 90.6149 69.7131 90.2707 68.5062Z" fill="#39706D"/>
<path d="M93.3375 73.0172C94.2032 71.8103 95.6115 71.0069 97.0927 70.8817C98.0315 70.8017 99.0259 71.0034 99.7526 71.6051C100.598 72.3042 100.956 73.4276 101.133 74.5128C101.349 75.8449 101.342 77.2327 100.921 78.5126C100.497 79.7925 99.624 80.9542 98.414 81.5524C97.204 82.1507 95.6601 82.1089 94.5788 81.302C93.2714 80.3212 93.1045 78.77 92.6281 77.3335C92.1483 75.8866 92.4404 74.2728 93.3375 73.0172Z" fill="#51A09B"/>
<path d="M92.8402 76.5127C93.2957 76.3632 93.7895 76.3736 94.2623 76.4536C95.4098 76.6449 96.4842 77.2501 97.2457 78.1335C98.0072 79.0169 98.4453 80.1682 98.4661 81.3333C98.4765 81.8968 98.2853 82.5855 97.7394 82.7141C97.3639 82.8046 96.9918 82.582 96.672 82.3594C95.295 81.4064 94.0155 80.3177 92.8541 79.1143C92.0335 78.2726 91.286 77.0205 92.8402 76.5127Z" fill="#39706D"/>
<path d="M88.6573 78.7526C90.0273 77.7544 91.6094 76.8744 93.3027 76.9336C94.7526 76.9823 96.1434 77.7613 96.9988 78.9335C97.8542 80.1056 98.1706 81.6394 97.9167 83.0654C97.4334 85.7644 95.1212 87.74 92.7811 89.173C90.0899 90.8216 87.1552 92.0737 84.1058 92.8806C82.6837 93.2562 81.3103 93.0997 80.7226 91.5763C80.3576 90.6268 80.3541 89.3051 80.7261 88.3521C81.6128 86.0775 83.4522 83.7541 85.0759 81.9698C86.1573 80.7768 87.3604 79.6986 88.6573 78.7526Z" fill="#51A09B"/>
<path d="M96.8423 83.1002C96.2373 84.1297 95.5837 85.0897 94.7352 85.9383C93.8938 86.7835 92.9411 87.5104 91.9293 88.1365C89.7178 89.5103 87.2561 90.3416 84.8812 91.3641C84.8326 91.385 84.8673 91.465 84.916 91.4511C87.4612 90.6824 90.003 89.6808 92.2526 88.2513C94.1754 87.027 96.1017 85.3401 97.0405 83.215C97.0997 83.0828 96.9188 82.968 96.8423 83.1002Z" fill="#4C5980"/>
<path d="M94.2693 84.5088C93.9842 84.7244 93.7825 85.0339 93.5461 85.2981C93.2992 85.5728 93.0349 85.8301 92.7672 86.084C92.2213 86.5951 91.6302 87.0506 90.987 87.4365C90.9035 87.4887 90.9765 87.6139 91.0635 87.5687C91.7345 87.2175 92.3708 86.7933 92.948 86.303C93.2366 86.0596 93.5044 85.7884 93.7582 85.5102C94.005 85.2425 94.2832 84.9609 94.4084 84.6132C94.4327 84.5401 94.3319 84.4602 94.2693 84.5088Z" fill="#4C5980"/>
<path d="M99.996 73.6363C99.9404 73.5042 99.7631 73.5528 99.7805 73.6954C99.8535 74.2172 99.9752 74.7215 100.003 75.2502C100.027 75.7197 100.013 76.1892 99.9613 76.6553C99.8535 77.6639 99.5475 78.6587 99.0746 79.556C99.0294 79.643 99.1546 79.7195 99.2067 79.6325C99.7526 78.7282 100.104 77.7405 100.246 76.6936C100.379 75.7197 100.372 74.558 99.996 73.6363Z" fill="#4C5980"/>
<path d="M27.0507 61.4005C27.4053 61.2474 27.826 61.1153 28.1598 61.3066C28.4832 61.4909 28.5945 61.9257 28.5041 62.2874C28.4137 62.6491 28.1668 62.9482 27.913 63.2195C26.6647 64.5447 25.0235 65.4907 23.2502 65.9046C22.979 65.4907 22.5687 64.8159 22.833 64.3777C23.1077 63.9256 23.6988 63.5117 24.1056 63.1812C24.9992 62.4578 25.9936 61.8526 27.0507 61.4005Z" fill="#39706D"/>
<path d="M19.8427 59.0075C19.9053 58.3328 20.0304 57.6024 20.5277 57.1398C20.7224 56.9589 21.0005 56.8268 21.2509 56.9172C21.5569 57.025 21.6716 57.3902 21.7273 57.7102C22.0819 59.6788 21.8385 61.6961 21.5951 63.6821C21.5951 63.689 20.1521 63.8386 20.0444 63.7864C19.7418 63.6369 19.8114 62.736 19.7905 62.4091C19.721 61.2752 19.7384 60.1344 19.8427 59.0075Z" fill="#39706D"/>
<path d="M15.0026 59.4597C14.9505 59.1466 14.9157 58.8232 15.0096 58.5206C15.1 58.218 15.3434 57.9432 15.6563 57.905C16.1014 57.8493 16.456 58.2597 16.7029 58.6354C17.7947 60.3014 18.5979 62.1587 19.0603 64.0994C18.4866 64.322 17.9373 64.7638 17.44 64.2838C17.0019 63.8595 16.6264 63.3551 16.2996 62.8404C15.6633 61.8387 15.1521 60.6457 15.0026 59.4597Z" fill="#39706D"/>
<path d="M11.602 64.0856C11.3308 63.8038 11.0735 63.4908 10.9553 63.1187C10.8371 62.7465 10.8858 62.2978 11.1639 62.0231C11.4317 61.7587 11.8593 61.71 12.221 61.8074C12.5861 61.9048 12.9025 62.1274 13.205 62.35C14.5993 63.3726 15.9067 64.5064 17.214 65.6403C17.2349 65.6577 16.9115 66.5307 16.8594 66.5933C16.6647 66.8228 16.5499 66.7498 16.23 66.6802C15.6459 66.5515 15.0756 66.3672 14.5263 66.1272C13.431 65.6437 12.4261 64.9516 11.602 64.0856Z" fill="#39706D"/>
<path d="M16.2752 69.0001C15.7884 67.7688 15.9658 66.308 16.6786 65.1916C17.3948 64.0751 18.6153 63.3169 19.9227 63.1047C20.6981 62.9795 21.5395 63.0491 22.2036 63.4699C22.746 63.8142 23.132 64.3707 23.3684 64.9724C23.6014 65.5707 23.6988 66.2176 23.7544 66.8576C23.8066 67.4384 23.8205 68.0575 23.5423 68.5688C23.2885 69.0349 22.8295 69.3479 22.3879 69.6435C21.7446 70.0713 21.1014 70.4991 20.4581 70.9269C18.8309 72.0086 16.908 70.6 16.2752 69.0001Z" fill="#51A09B"/>
<path d="M19.4985 69.9148C19.9957 69.0105 20.8823 68.3288 21.8837 68.0854C22.4853 67.9393 23.1459 67.9497 23.6883 68.2488C24.2308 68.5479 24.6132 69.174 24.5054 69.7827C24.3977 70.3948 23.8657 70.8296 23.3719 71.2052C22.7773 71.6574 22.1793 72.1095 21.5047 72.4295C21.0145 72.6625 19.5993 73.2155 19.1716 72.6417C18.6953 71.9947 19.1647 70.52 19.4985 69.9148Z" fill="#39706D"/>
<path d="M20.399 77.4484C19.6654 75.8972 19.043 74.2173 19.1786 72.506C19.3142 70.7948 20.3955 69.0558 22.0611 68.6419C23.2467 68.3462 24.5228 68.7636 25.5034 69.4975C26.4804 70.2314 27.2071 71.247 27.8608 72.28C30.2843 76.1024 31.9742 80.3909 32.8087 84.8393C32.9547 85.6254 33.0694 86.474 32.7148 87.1905C30.712 91.2355 23.4206 82.5403 22.3427 80.9161C21.6125 79.81 20.9658 78.6483 20.399 77.4484Z" fill="#51A09B"/>
<path d="M28.5736 84.7836C28.2259 84.3489 27.68 84.0184 27.2628 83.6498C26.8281 83.2672 26.4004 82.8707 25.9901 82.4603C25.1626 81.6255 24.4011 80.7282 23.7161 79.7717C22.3497 77.8657 21.3204 75.7476 20.5242 73.5459C20.4999 73.4798 20.399 73.5042 20.4164 73.5737C21.0353 75.9041 22.1549 78.0709 23.5736 80.0221C24.262 80.9716 25.027 81.869 25.8545 82.6968C26.2822 83.1246 26.7273 83.535 27.1967 83.9211C27.5966 84.248 28.0416 84.6793 28.5284 84.8636C28.5771 84.881 28.6014 84.8149 28.5736 84.7836Z" fill="#4C5980"/>
<path d="M26.9011 80.8395C26.762 80.6412 26.5569 80.4882 26.3761 80.3282C26.1883 80.1612 26.0006 79.9943 25.8232 79.8169C25.4547 79.4552 25.1104 79.0726 24.7905 78.6691C24.1438 77.8553 23.5701 76.9649 23.1076 76.0327C23.0763 75.9701 22.9651 76.0154 22.9894 76.0814C23.3788 77.0657 23.883 77.977 24.5332 78.8117C24.8601 79.2291 25.2113 79.6256 25.5833 79.9978C25.9275 80.3421 26.3309 80.7977 26.7933 80.9751C26.8698 81.0064 26.9463 80.9055 26.9011 80.8395Z" fill="#4C5980"/>
<path d="M47.082 127.822C40.6216 122.159 35.6668 114.793 32.8608 106.671C30.0548 98.5499 29.4672 90.046 31.0528 81.6012C31.3483 80.0361 33.2329 78.6727 34.7489 78.1857C36.2649 77.6988 37.8817 77.6675 39.4742 77.6431C48.5841 77.5214 57.7184 77.6084 66.7657 78.6831C70.3019 79.1039 73.8763 79.6883 77.0996 81.2082C78.9042 82.0603 81.0808 83.6359 82.3256 85.201C83.4209 94.1954 80.5419 103.165 75.5731 110.741C70.6044 118.316 62.8957 124.048 54.21 126.625C51.87 127.314 49.4882 128.201 47.082 127.822Z" fill="#51A09B"/>
<path d="M78.9911 95.0092C73.2817 92.9015 67.3742 91.4442 61.3693 90.4912C55.4027 89.5417 49.3352 89.1278 43.2955 89.253C41.6091 89.2878 39.9228 89.3678 38.2399 89.4895C36.55 89.6112 34.8045 89.6947 33.1599 90.119C32.9791 90.1642 33.0243 90.4355 33.2051 90.439C34.7176 90.4495 36.2301 90.2303 37.7392 90.119C39.2239 90.0077 40.7121 89.9347 42.2037 89.8895C45.2114 89.799 48.2225 89.8443 51.2232 90.0321C57.2212 90.4077 63.1982 91.3364 69.0223 92.8285C72.3186 93.6736 75.5766 94.6405 78.7929 95.7605C79.2658 95.924 79.4535 95.1797 78.9911 95.0092Z" fill="#39706D"/>
<path d="M49.9054 89.8651C50.5348 87.58 52.7323 85.8236 55.0967 85.7123C57.4611 85.601 59.8151 87.1418 60.66 89.3573C61.5014 91.5729 60.7678 94.2892 58.9284 95.7779C54.7594 99.1447 48.4833 95.0266 49.9054 89.8651Z" fill="#39706D"/>
<path d="M50.9068 90.1364C51.4214 88.2722 53.2121 86.8392 55.1454 86.7453C57.0751 86.6549 58.998 87.9139 59.6829 89.7191C60.3714 91.5277 59.7733 93.7432 58.2678 94.9605C54.8707 97.7117 49.7455 94.3519 50.9068 90.1364Z" fill="#FFD075"/>
<path d="M82.6629 85.9419C82.6455 85.8271 82.4542 85.8271 82.4334 85.9419C82.3395 86.4705 82.4021 87.0548 82.3986 87.5905L82.3882 89.2078C82.3847 89.7469 82.3812 90.286 82.3882 90.8251C82.3917 91.1172 82.3951 91.4059 82.3986 91.6981C82.4021 91.9137 82.3673 92.1398 82.489 92.3276C82.496 92.3346 82.5064 92.3346 82.5099 92.3276C82.6316 92.1433 82.6038 91.9137 82.6107 91.6981L82.635 90.8251C82.649 90.286 82.6559 89.7469 82.6594 89.2078L82.6768 87.5905C82.6768 87.0548 82.7498 86.4705 82.6629 85.9419Z" fill="white"/>
<path d="M35.1592 77.9979C33.4519 78.137 32.0611 79.33 31.2718 80.7978C30.7955 81.6812 30.5416 82.669 30.3991 83.6568C30.3226 84.1854 30.2739 84.7211 30.2565 85.2567C30.2391 85.7332 30.1174 86.394 30.2913 86.8392C30.2982 86.8601 30.333 86.874 30.3469 86.8462C30.5034 86.4914 30.4408 86.0323 30.4617 85.6497C30.4895 85.1767 30.5208 84.7037 30.5695 84.2341C30.6807 83.2011 30.8963 82.1507 31.3483 81.2082C32.0681 79.7091 33.438 78.4188 35.1592 78.297C35.3504 78.2831 35.3504 77.984 35.1592 77.9979Z" fill="white"/>
<path d="M77.6142 81.1282C75.4688 79.9317 73.0836 79.3057 70.6705 78.9196C68.0905 78.5092 65.4722 78.2901 62.8714 78.0744C57.3707 77.6153 51.8526 77.3753 46.331 77.3614C43.2121 77.351 40.0897 77.4067 36.9742 77.5945C36.849 77.6014 36.8456 77.7927 36.9742 77.7892C47.7948 77.5319 58.6781 77.6293 69.4292 79.0553C72.2039 79.4239 74.9855 80.0222 77.4542 81.3995C77.6316 81.5004 77.7915 81.2256 77.6142 81.1282Z" fill="white"/>
<path d="M76.2824 100.936C74.9959 105.384 72.9862 109.582 70.1211 113.234C67.3186 116.799 63.7928 119.766 59.8151 121.94C57.5098 123.199 55.0793 124.114 52.5897 124.931C52.4576 124.973 52.5132 125.168 52.6453 125.136C57.1134 124.135 61.3797 121.791 64.9368 118.949C68.5807 116.041 71.5988 112.368 73.7685 108.243C74.9751 105.951 75.9278 103.524 76.5258 101.002C76.5676 100.842 76.3277 100.776 76.2824 100.936Z" fill="#39706D"/>
<path d="M72.1586 104.911C71.5328 106.216 71.0042 107.548 70.2915 108.81C69.5543 110.118 68.7198 111.37 67.7914 112.549C65.9799 114.855 63.838 116.862 61.4528 118.559C60.1036 119.519 58.678 120.358 57.1864 121.078C57.0821 121.13 57.1725 121.279 57.2768 121.234C62.6767 118.775 67.2177 114.608 70.2358 109.506C71.0668 108.101 71.9118 106.574 72.3638 104.995C72.3951 104.877 72.2143 104.793 72.1586 104.911Z" fill="#39706D"/>
<path d="M54.3352 88.5296C54.443 88.3104 54.6935 88.1679 54.9335 88.1957C55.1769 88.2235 55.3891 88.4357 55.3995 88.6791C55.4065 88.8391 55.3334 88.9991 55.2152 89.1139C55.1004 89.2252 54.9439 89.2948 54.7874 89.3261C54.3178 89.42 54.1544 88.8948 54.3352 88.5296Z" fill="white"/>
<path d="M52.7253 90.1852C52.7323 90.0217 52.847 89.8617 53.007 89.813C53.1636 89.7643 53.3548 89.8373 53.4279 89.9869C53.4766 90.0843 53.4731 90.206 53.4314 90.3069C53.3896 90.4077 53.3131 90.4912 53.2227 90.5538C52.9549 90.7416 52.7114 90.4599 52.7253 90.1852Z" fill="white"/>
<path d="M61.4215 41.8327C61.9187 38.219 63.386 34.7409 65.6322 31.8645C65.8095 31.6385 66.2268 31.8785 66.2894 32.1602C66.352 32.4419 66.192 32.7167 66.046 32.9636C64.4117 35.687 63.5216 38.8485 63.4938 42.024C62.8575 42.1284 62.0056 42.0936 61.4215 41.8327Z" fill="#39706D"/>
<path d="M64.4396 31.7428C64.0362 31.0228 64.0154 30.1185 64.3213 29.3534C64.6273 28.5882 65.2428 27.9656 65.9764 27.59C66.7692 27.183 67.7949 27.0787 68.5182 27.5969C68.9493 27.9065 69.224 28.4004 69.3596 28.9151C69.603 29.8542 69.3979 30.9011 68.8172 31.6802C67.7289 33.134 65.427 33.5131 64.4396 31.7428Z" fill="#FFD075"/>
<path d="M68.8833 29.082C68.8415 28.9499 68.6433 29.0056 68.6781 29.1377C68.925 30.0626 68.5495 31.1579 67.7428 31.6933C67.322 31.975 66.8144 32.0932 66.3102 32.0619C66.0599 32.0445 65.813 31.9854 65.5766 31.8985C65.4549 31.8533 65.3366 31.7942 65.2254 31.7316C65.1419 31.6829 65.0793 31.6377 64.9785 31.6586C64.9646 31.662 64.9542 31.6759 64.9542 31.6899C64.9681 31.9124 65.3366 32.0515 65.5105 32.128C65.7539 32.2323 66.0181 32.2914 66.2824 32.3122C66.8422 32.3609 67.4298 32.2218 67.8992 31.9054C68.8033 31.2969 69.2066 30.1217 68.8833 29.082Z" fill="#EB9921"/>
<path d="M36.098 60.2805C35.9172 56.6355 37.235 52.9939 39.429 50.048C41.6231 47.102 44.6586 44.8204 47.9687 43.1648C52.9861 40.6571 58.8033 39.5407 64.3422 40.5389C69.8777 41.5371 75.069 44.7578 77.9271 49.5228C80.3889 53.6269 81.0217 58.5554 80.9591 63.3204C80.9383 64.8264 80.834 66.4054 80.0342 67.6923C79.1233 69.1636 77.1831 70.3635 75.5488 70.993C70.0655 73.1112 64.3214 73.2329 58.4451 72.826C54.217 72.5338 50.9764 72.4121 46.8283 71.5565C45.1245 71.2052 41.7865 70.1792 40.4131 69.1114C39.0987 68.0888 38.2955 67.0558 37.534 65.5916C36.6822 63.9499 36.1884 62.1239 36.098 60.2805Z" fill="#51A09B"/>
<path d="M42.7774 61.7135C42.9235 58.7049 43.3059 55.7103 43.9214 52.7609C44.1787 51.5157 44.5229 50.2045 45.4443 49.3315C46.5014 48.3298 48.0695 48.135 49.5195 48.0098C57.0682 47.3455 64.8464 47.1577 72.0335 49.561C72.8749 49.8428 73.7407 50.1836 74.3075 50.8653C75.1072 51.8288 75.1072 53.2096 75.0307 54.4617C74.8812 56.952 74.603 59.4319 74.2032 61.8943C73.9215 63.6264 73.4869 65.4977 72.1065 66.5828C71.039 67.4245 69.61 67.6158 68.2539 67.7097C65.2984 67.9114 62.329 67.7758 59.377 67.5567C55.6322 67.2784 51.8978 66.8576 48.1843 66.2976C46.9221 66.1063 44.9888 66.162 43.9318 65.3794C42.8365 64.5655 42.7183 62.9447 42.7774 61.7135Z" fill="#39706D"/>
<path d="M52.2072 52.8235C51.331 52.7401 50.4583 53.1992 49.8706 53.8287C49.2065 54.5382 48.831 55.4773 48.5876 56.4025C48.532 56.6112 48.8519 56.7642 48.9457 56.5555C49.5264 55.286 50.2914 53.3174 52.0334 53.4983C52.7045 53.5678 53.2573 54.0617 53.5668 54.6356C53.758 54.9869 53.8588 55.3869 53.9006 55.7834C53.9458 56.2181 53.904 56.639 53.9179 57.0703C53.9319 57.4598 54.5403 57.5816 54.6273 57.1677C54.9854 55.4704 54.1892 53.0183 52.2072 52.8235Z" fill="white"/>
<path d="M67.1517 55.7173C66.8631 54.9799 66.3485 54.3469 65.6461 53.9643C64.1996 53.1748 62.3429 53.5226 61.3311 54.8339C60.813 55.5051 60.4583 56.4651 60.6913 57.3137C60.7608 57.5711 61.1155 57.5016 61.1363 57.2546C61.2059 56.4164 61.3832 55.6338 61.9847 55.0043C62.5724 54.3921 63.4103 54.1139 64.2483 54.2078C65.0828 54.3017 65.8408 54.7539 66.272 55.4808C66.4771 55.8286 66.6092 56.2147 66.6579 56.6181C66.7066 57.0424 66.6266 57.4007 66.564 57.8181C66.5119 58.1554 66.9848 58.4337 67.1656 58.072C67.5133 57.3694 67.4264 56.4233 67.1517 55.7173Z" fill="white"/>
<path d="M63.8311 61.7831C63.8172 61.6927 63.7233 61.6474 63.6433 61.6405C62.788 61.5605 61.9291 61.4979 61.0703 61.4527C60.6496 61.4283 60.2288 61.4109 59.8081 61.397C59.6064 61.3901 59.4048 61.3866 59.1996 61.3901C58.9875 61.3935 58.7615 61.3727 58.5598 61.4353C58.5459 61.4388 58.5425 61.4492 58.532 61.4561C58.4729 61.4561 58.4103 61.4805 58.3686 61.5466C58.153 61.8944 57.9444 62.2491 57.7358 62.6039C57.6315 62.7813 57.5272 62.9587 57.4263 63.1361C57.3985 63.1848 57.3672 63.2334 57.3394 63.2856C57.3046 63.0943 57.2559 62.9065 57.2212 62.7222C57.1586 62.3813 57.1029 62.0405 57.0473 61.6996C56.9952 61.3727 56.95 61.0422 56.8943 60.7118C56.8665 60.5484 56.8387 60.3849 56.8109 60.2214C56.7831 60.0579 56.7726 59.9014 56.6857 59.7588C56.6509 59.7067 56.5849 59.7032 56.5431 59.738C56.5153 59.731 56.484 59.731 56.4562 59.7414C56.3519 59.7727 56.2893 59.8527 56.2163 59.9293C56.1537 59.9953 56.1016 60.0649 56.0459 60.1379C55.9347 60.2805 55.8234 60.4231 55.7156 60.5658C55.6043 60.7118 55.4826 60.8544 55.3818 61.0075C55.3227 61.0979 55.2497 61.2022 55.2045 61.3101C54.8707 61.2544 54.523 61.2509 54.1892 61.2266C53.7823 61.1953 53.3721 61.1605 52.9652 61.1292C52.5723 61.1014 52.1794 61.0736 51.7865 61.0457C51.411 61.0179 50.9937 60.9414 50.6182 61.0214C50.4826 61.0492 50.5104 61.2266 50.6182 61.2683C50.959 61.397 51.3797 61.3866 51.7413 61.4144C52.1342 61.4457 52.5271 61.477 52.92 61.5083C53.3129 61.5396 53.7059 61.5674 54.0988 61.5987C54.4847 61.6266 54.8915 61.6996 55.2775 61.6753C55.354 61.6718 55.4096 61.6161 55.434 61.557C55.5452 61.4944 55.6426 61.3796 55.7226 61.2927C55.8443 61.1605 55.952 61.0144 56.0668 60.8753C56.1746 60.7397 56.2858 60.6005 56.3936 60.4649C56.4284 60.4232 56.4597 60.3779 56.4945 60.3327C56.5118 60.4684 56.5327 60.604 56.5466 60.7257C56.5779 61.0596 56.6301 61.3935 56.6787 61.7274C56.7274 62.0578 56.7796 62.3848 56.8387 62.7152C56.8943 63.0421 56.9152 63.4213 57.0369 63.7343C57.0751 63.8352 57.1864 63.8734 57.2733 63.8491C57.3081 63.856 57.3498 63.8525 57.3846 63.8212C57.5376 63.6995 57.6488 63.5013 57.7532 63.3343C57.8609 63.1604 57.9687 62.9865 58.0765 62.8091C58.2921 62.4578 58.5042 62.11 58.7094 61.7518C58.7128 61.7448 58.7128 61.7344 58.7163 61.7274C58.8589 61.7518 59.0084 61.7483 59.1509 61.7587C59.37 61.7761 59.5891 61.7866 59.8081 61.7935C60.2288 61.8074 60.6496 61.8283 61.0703 61.8492C61.9291 61.8944 62.788 61.9605 63.6433 62.037C63.7337 62.0439 63.8033 61.9674 63.8311 61.8944C63.845 61.8526 63.838 61.8213 63.8311 61.7831Z" fill="#FFD075"/>
<path d="M77.1482 68.214C75.8235 68.9444 74.4918 69.5983 73.0522 70.0852C71.6336 70.5652 70.1698 70.9095 68.692 71.1461C65.5244 71.6539 62.2942 71.6573 59.0988 71.4765C57.2212 71.3687 55.347 71.2121 53.4694 71.1461C53.4068 71.1426 53.3929 71.2469 53.4555 71.2539C56.7657 71.7478 60.1349 71.9912 63.4834 71.9391C66.5919 71.8938 69.7177 71.5217 72.6906 70.5757C74.2866 70.0679 75.9034 69.4105 77.3151 68.4992C77.4959 68.3879 77.336 68.1097 77.1482 68.214Z" fill="#4C5980"/>
<path d="M51.4006 70.7493C51.0181 70.6798 50.6147 70.6867 50.2253 70.645C49.8324 70.5998 49.4395 70.5407 49.0501 70.4642C48.678 70.3912 48.3025 70.3112 47.9339 70.2173C47.5445 70.12 47.1446 69.9391 46.7517 69.887C46.6474 69.8731 46.5744 70.0052 46.6752 70.0678C46.9951 70.2625 47.4193 70.3494 47.7774 70.4537C48.1704 70.5685 48.5667 70.6693 48.9701 70.7458C49.356 70.8223 49.7455 70.8814 50.1349 70.9301C50.5278 70.9788 50.9624 71.0553 51.3588 71.017C51.5049 71.0031 51.564 70.7771 51.4006 70.7493Z" fill="#4C5980"/>
<path d="M44.1822 45.2378C39.6237 47.9994 36.55 52.8166 36.0424 58.1311C35.8859 59.7519 35.9276 61.4457 36.3205 63.0282C36.3588 63.1813 36.5709 63.1117 36.55 62.9656C36.171 60.1519 36.2197 57.3972 37.0889 54.6704C37.8748 52.2183 39.2447 49.975 41.0459 48.1351C42.0333 47.1264 43.1425 46.2534 44.3491 45.523C44.5334 45.4152 44.3665 45.1265 44.1822 45.2378Z" fill="white"/>
<path d="M75.222 45.8256C68.918 40.3685 59.9889 38.6329 52.0995 41.1997C51.0077 41.5545 49.9367 41.9892 48.904 42.497C47.8852 42.9944 46.8352 43.5405 45.9694 44.2813C45.879 44.3578 45.9937 44.4935 46.0911 44.4413C47.0056 43.9578 47.8644 43.384 48.7893 42.9144C49.7003 42.4553 50.6391 42.0519 51.5988 41.711C53.532 41.0258 55.5522 40.5841 57.5967 40.4137C61.5814 40.0763 65.6218 40.7858 69.2727 42.4205C71.345 43.3492 73.2678 44.5769 75.0133 46.0343C75.1559 46.156 75.368 45.9508 75.222 45.8256Z" fill="white"/>
<path d="M82.87 49.175C84.087 47.4811 85.3005 45.7908 86.5174 44.0969C86.6009 43.9787 86.6878 43.8604 86.7782 43.7457C86.7121 35.4852 86.6461 27.2247 86.5765 18.9678C86.5696 17.9104 86.7747 16.3627 87.8318 16.3279C99.9389 15.9175 112.056 15.8201 124.167 16.0496C125.384 16.074 126.862 16.3001 127.547 17.3052C127.627 26.6474 127.703 35.993 127.783 45.3351C127.425 46.3681 124.205 46.2325 122.279 46.2221C112.192 46.1768 102.109 46.1351 92.0216 46.0899C91.6322 46.2916 91.2462 46.4586 91.0272 46.5838C88.7671 47.8707 86.4653 49.081 84.1322 50.2288C83.8644 50.361 83.5863 50.4931 83.2872 50.5001C82.9882 50.5071 82.6648 50.3505 82.5744 50.0653C82.4806 49.7558 82.6822 49.4393 82.87 49.175Z" fill="#EB9921"/>
<path d="M93.1273 32.5323C92.9361 33.4331 92.7448 34.3305 92.5501 35.2313C92.4667 35.6278 91.8791 35.4609 91.9625 35.0644C92.1433 34.2227 92.3206 33.381 92.5015 32.5427C91.6878 32.5532 90.8742 32.5636 90.0606 32.574C89.6676 32.5775 89.6676 31.9515 90.0606 31.9445C90.9194 31.9341 91.7782 31.9202 92.6371 31.9097C92.7379 31.4402 92.8387 30.9706 92.9396 30.4976C93.0022 30.202 93.4716 30.1916 93.5272 30.4976C93.6141 30.9637 93.6976 31.4263 93.7845 31.8923C94.1426 31.8889 94.5008 31.8819 94.8589 31.8784C95.8116 28.6229 96.7678 25.3709 97.6997 22.1085C97.7901 21.7955 98.176 21.8928 98.2108 22.1815C98.6107 25.3953 99.007 28.6055 99.4034 31.8193C99.4173 31.8193 99.4278 31.8193 99.4417 31.8193C99.5321 31.3811 99.6225 30.9463 99.7129 30.5081C99.7685 30.2437 100.217 30.2194 100.255 30.5081C100.311 30.9463 100.387 31.3776 100.471 31.8054C101.013 31.7984 101.552 31.7915 102.095 31.7845C102.189 31.3393 102.269 30.8941 102.324 30.4385C102.362 30.1359 102.794 30.0142 102.881 30.362C102.999 30.8315 103.113 31.3011 103.232 31.7706C103.851 31.7637 104.473 31.7532 105.092 31.7463C105.287 31.0159 105.481 30.2889 105.676 29.5585C105.766 29.2246 106.187 29.3325 106.222 29.6351C106.305 30.3342 106.389 31.0298 106.472 31.7289C106.601 31.7289 106.73 31.7254 106.858 31.7254C107.303 31.7184 107.745 31.715 108.19 31.708C108.506 29.0125 108.826 26.317 109.132 23.6214C109.164 23.3606 109.574 23.2389 109.623 23.5519C110.047 26.2578 110.471 28.9638 110.895 31.6697C111.066 31.6663 111.239 31.6663 111.41 31.6628C111.622 30.7898 111.834 29.9203 112.046 29.0473C112.109 28.7899 112.467 28.8038 112.536 29.0473C112.783 29.9098 113.034 30.7759 113.28 31.6384L114.164 31.628C114.456 30.6368 114.744 29.6455 115.033 28.6542C115.106 28.3969 115.443 28.4108 115.523 28.6542C115.843 29.6211 116.1 30.602 116.302 31.5967C116.361 31.5967 116.417 31.5932 116.476 31.5932C116.817 28.5673 117.272 25.5587 117.797 22.5606C117.839 22.3241 118.232 22.3172 118.27 22.5606C118.701 25.5761 119.264 28.5638 119.953 31.5237C120.565 31.5167 121.177 31.5132 121.789 31.5167C121.813 31.5132 121.837 31.5132 121.862 31.5167C122.456 31.5202 123.051 31.5341 123.646 31.555C123.972 31.5689 123.972 32.0593 123.646 32.0802C123.1 32.1149 122.554 32.1393 122.004 32.1602C121.723 33.5444 121.427 34.9252 121.132 36.306C121.073 36.5808 120.683 36.5599 120.61 36.306C120.238 34.9496 119.894 33.5862 119.574 32.2158C118.687 32.2262 117.801 32.2262 116.914 32.2332C116.844 32.9149 116.775 33.5931 116.712 34.2748C116.681 34.6192 116.229 34.6192 116.194 34.2748C116.125 33.5896 116.024 32.9114 115.899 32.2401C115.707 32.2436 115.513 32.2436 115.321 32.2471C115.05 32.2506 114.779 32.2541 114.508 32.2575C114.324 32.8906 114.139 33.5236 113.955 34.1531C113.882 34.4035 113.534 34.407 113.461 34.1531C113.284 33.527 113.103 32.901 112.926 32.2784C112.543 32.2819 112.157 32.2888 111.775 32.2923L111.281 34.3096C111.222 34.5461 110.836 34.5705 110.794 34.3096C110.69 33.6418 110.586 32.9775 110.481 32.3097C109.873 32.3167 109.264 32.3271 108.652 32.3341C108.315 35.3739 107.978 38.4138 107.62 41.4501C107.575 41.8223 107.098 41.8258 107.056 41.4501C106.709 38.4242 106.344 35.3983 105.982 32.3723C105.819 32.3758 105.659 32.3758 105.495 32.3793C105.123 33.7809 104.748 35.1791 104.376 36.5808C104.303 36.8521 103.906 36.859 103.837 36.5808C103.489 35.193 103.145 33.8018 102.797 32.4141C102.7 32.4141 102.602 32.4175 102.508 32.4175C102.248 33.4714 101.89 34.4905 101.42 35.4817C101.302 35.7287 100.986 35.6209 100.906 35.4122C100.533 34.4453 100.245 33.4575 100.026 32.4523C99.9771 32.4523 99.925 32.4523 99.8763 32.4558C99.7894 32.8801 99.699 33.3044 99.6121 33.7288C99.539 34.0766 99.0975 33.9479 99.0627 33.6523C99.014 33.2592 98.9688 32.8627 98.9201 32.4697C97.7031 32.4871 96.4897 32.501 95.2727 32.5184C94.9876 33.5236 94.7024 34.5322 94.4173 35.5374C94.3373 35.8156 93.8958 35.8539 93.8367 35.5374C93.6489 34.5392 93.4681 33.541 93.2838 32.5427C93.2316 32.5288 93.1795 32.5323 93.1273 32.5323ZM120.85 35.0957C121.066 34.1218 121.285 33.1479 121.507 32.1741C121.045 32.188 120.579 32.1949 120.116 32.2019C120.346 33.1688 120.589 34.1322 120.85 35.0957ZM119.421 31.5202C118.868 29.0716 118.395 26.5987 118.013 24.1153C117.585 26.5883 117.255 29.0751 116.987 31.5724C117.797 31.555 118.611 31.5341 119.421 31.5202ZM115.175 31.6071C115.377 31.6037 115.579 31.6002 115.78 31.5967C115.641 30.9254 115.478 30.2611 115.287 29.6038C115.092 30.275 114.894 30.9428 114.699 31.6141C114.859 31.6106 115.015 31.6071 115.175 31.6071ZM113.715 33.1514C113.802 32.8523 113.889 32.5532 113.976 32.2575C113.802 32.261 113.632 32.261 113.458 32.2645C113.545 32.5601 113.628 32.8558 113.715 33.1514ZM112.748 31.6384C112.602 31.1272 112.456 30.6159 112.31 30.1046L111.931 31.6489C112.203 31.6454 112.477 31.6419 112.748 31.6384ZM111.093 32.9497C111.145 32.7306 111.201 32.5114 111.253 32.2923C111.166 32.2923 111.079 32.2958 110.989 32.2958C111.027 32.5149 111.059 32.7306 111.093 32.9497ZM110.387 31.6697C110.064 29.6072 109.741 27.5413 109.417 25.4787C109.184 27.5482 108.955 29.6211 108.725 31.6941C109.282 31.6837 109.835 31.6767 110.387 31.6697ZM107.335 39.0189C107.588 36.7895 107.849 34.5635 108.113 32.3341C107.693 32.341 107.276 32.3445 106.855 32.3514C106.75 32.3514 106.646 32.3549 106.542 32.3549C106.806 34.5739 107.07 36.7964 107.335 39.0189ZM105.913 31.7289C105.888 31.5202 105.864 31.308 105.836 31.0993C105.78 31.3115 105.725 31.5202 105.669 31.7323C105.749 31.7323 105.833 31.7323 105.913 31.7289ZM104.122 35.3704C104.39 34.3722 104.654 33.374 104.918 32.3758C104.407 32.3827 103.896 32.3897 103.381 32.3967C103.632 33.3879 103.875 34.3792 104.122 35.3704ZM101.208 34.5739C101.507 33.8714 101.75 33.1514 101.942 32.4141C101.493 32.421 101.048 32.4245 100.6 32.4314C100.766 33.1549 100.968 33.8714 101.208 34.5739ZM98.8471 31.8263C98.5098 29.0473 98.176 26.2683 97.8422 23.4858C97.0355 26.2787 96.2463 29.0751 95.4535 31.8715C96.587 31.8541 97.7171 31.8402 98.8471 31.8263ZM94.1948 34.1357C94.3513 33.5931 94.5112 33.054 94.6711 32.5114C94.4138 32.5149 94.1565 32.5184 93.8992 32.5219C93.9966 33.061 94.0974 33.5966 94.1948 34.1357Z" fill="white"/>
</g>
<defs>
<clipPath id="clip0_397_324">
<rect width="152" height="140" fill="white"/>
</clipPath>
</defs>
</svg>
