<svg width="194" height="56" viewBox="0 0 194 56" fill="none" xmlns="http://www.w3.org/2000/svg">
<path d="M186.744 56H7.25639C3.30947 56 0.0769043 52.8482 0.0769043 49V7C0.0769043 3.15175 3.30947 -1.7646e-06 7.25639 -1.7646e-06H186.744C190.69 -1.7646e-06 193.923 3.15175 193.923 7V49C193.923 52.8482 190.69 56 186.744 56Z" fill="white"/>
<path d="M186.744 1.12175C190.068 1.12175 192.773 3.759 192.773 7V49C192.773 52.241 190.068 54.8783 186.744 54.8783H7.25639C3.93229 54.8783 1.22742 52.241 1.22742 49V7C1.22742 3.759 3.93229 1.12175 7.25639 1.12175H186.744ZM186.744 -1.7646e-06H7.25639C3.30947 -1.7646e-06 0.0769043 3.15175 0.0769043 7V49C0.0769043 52.8482 3.30947 56 7.25639 56H186.744C190.69 56 193.923 52.8482 193.923 49V7C193.923 3.15175 190.69 -1.7646e-06 186.744 -1.7646e-06Z" fill="#A6A6A6"/>
<path d="M15.0605 10.5542C14.6387 10.9847 14.3946 11.6549 14.3946 12.5229V43.4839C14.3946 44.3519 14.6387 45.0222 15.0605 45.4527L15.1646 45.5472L32.959 28.2047V27.7952L15.1646 10.4527L15.0605 10.5542Z" fill="url(#paint0_linear_1048_342)"/>
<path d="M38.8838 33.9884L32.9589 28.2047V27.7952L38.891 22.0114L39.0238 22.0867L46.0489 25.9839C48.0538 27.0899 48.0538 28.9099 46.0489 30.0229L39.0238 33.9132L38.8838 33.9884Z" fill="url(#paint1_linear_1048_342)"/>
<path d="M39.0238 33.9132L32.9589 28L15.0605 45.4527C15.7264 46.1352 16.8123 46.2175 18.0472 45.535L39.0238 33.9132Z" fill="url(#paint2_linear_1048_342)"/>
<path d="M39.0238 22.0868L18.0472 10.465C16.8123 9.7895 15.7264 9.87175 15.0605 10.5543L32.9589 28L39.0238 22.0868Z" fill="url(#paint3_linear_1048_342)"/>
<path d="M68.1636 14.3413C68.1636 15.5103 67.8046 16.4465 67.0974 17.1448C66.2843 17.9725 65.2254 18.389 63.9277 18.389C62.6874 18.389 61.6284 17.9655 60.7597 17.1308C59.8892 16.2838 59.4549 15.2443 59.4549 14C59.4549 12.7558 59.8892 11.7163 60.7597 10.8763C61.6284 10.0345 62.6874 9.61102 63.9277 9.61102C64.5451 9.61102 65.1338 9.73527 65.6956 9.96627C66.2556 10.199 66.7115 10.514 67.0418 10.9025L66.2915 11.641C65.7154 10.9778 64.931 10.6505 63.9277 10.6505C63.0231 10.6505 62.2387 10.9585 61.5728 11.5798C60.9141 12.2028 60.5838 13.0095 60.5838 14C60.5838 14.9905 60.9141 15.8043 61.5728 16.4273C62.2387 17.0415 63.0231 17.3565 63.9277 17.3565C64.8879 17.3565 65.6956 17.0415 66.3328 16.4203C66.7528 16.009 66.9915 15.442 67.0543 14.7175H63.9277V13.706H68.099C68.1492 13.9248 68.1636 14.1365 68.1636 14.3413Z" fill="black" stroke="black" stroke-width="0.172308" stroke-miterlimit="10"/>
<path d="M74.7813 10.8343H70.8631V13.4943H74.3954V14.5058H70.8631V17.1658H74.7813V18.1965H69.7539V9.80353H74.7813V10.8343Z" fill="black" stroke="black" stroke-width="0.172308" stroke-miterlimit="10"/>
<path d="M79.4515 18.1965H78.3423V10.8343H75.9389V9.80353H81.8566V10.8343H79.4515V18.1965Z" fill="black" stroke="black" stroke-width="0.172308" stroke-miterlimit="10"/>
<path d="M86.1392 18.1965V9.80353H87.2467V18.1965H86.1392Z" fill="black" stroke="black" stroke-width="0.172308" stroke-miterlimit="10"/>
<path d="M92.1556 18.1965H91.0553V10.8343H88.643V9.80353H94.5679V10.8343H92.1556V18.1965Z" fill="black" stroke="black" stroke-width="0.172308" stroke-miterlimit="10"/>
<path d="M105.772 17.1168C104.923 17.9655 103.871 18.389 102.616 18.389C101.354 18.389 100.303 17.9655 99.4536 17.1168C98.6064 16.2698 98.1846 15.2303 98.1846 14C98.1846 12.7698 98.6064 11.7303 99.4536 10.8833C100.303 10.0345 101.354 9.61102 102.616 9.61102C103.864 9.61102 104.915 10.0345 105.764 10.8903C106.619 11.7443 107.04 12.7768 107.04 14C107.04 15.2303 106.619 16.2698 105.772 17.1168ZM100.274 16.4133C100.913 17.0415 101.69 17.3565 102.616 17.3565C103.535 17.3565 104.319 17.0415 104.951 16.4133C105.588 15.785 105.912 14.9783 105.912 14C105.912 13.0218 105.588 12.215 104.951 11.5868C104.319 10.9585 103.535 10.6435 102.616 10.6435C101.69 10.6435 100.913 10.9585 100.274 11.5868C99.6366 12.215 99.3136 13.0218 99.3136 14C99.3136 14.9783 99.6366 15.785 100.274 16.4133Z" fill="black" stroke="black" stroke-width="0.172308" stroke-miterlimit="10"/>
<path d="M108.597 18.1965V9.80353H109.943L114.128 16.331H114.177L114.128 14.7175V9.80353H115.236V18.1965H114.08L109.697 11.347H109.648L109.697 12.9675V18.1965H108.597Z" fill="black" stroke="black" stroke-width="0.172308" stroke-miterlimit="10"/>
<path d="M97.9117 30.4536C94.5392 30.4536 91.784 32.9561 91.784 36.4088C91.784 39.8336 94.5392 42.3623 97.9117 42.3623C101.291 42.3623 104.047 39.8336 104.047 36.4088C104.047 32.9561 101.291 30.4536 97.9117 30.4536ZM97.9117 40.0173C96.0612 40.0173 94.4692 38.5281 94.4692 36.4088C94.4692 34.2616 96.0612 32.7986 97.9117 32.7986C99.7622 32.7986 101.361 34.2616 101.361 36.4088C101.361 38.5281 99.7622 40.0173 97.9117 40.0173ZM84.5417 30.4536C81.162 30.4536 78.414 32.9561 78.414 36.4088C78.414 39.8336 81.162 42.3623 84.5417 42.3623C87.9197 42.3623 90.6694 39.8336 90.6694 36.4088C90.6694 32.9561 87.9197 30.4536 84.5417 30.4536ZM84.5417 40.0173C82.6894 40.0173 81.092 38.5281 81.092 36.4088C81.092 34.2616 82.6894 32.7986 84.5417 32.7986C86.3922 32.7986 87.9843 34.2616 87.9843 36.4088C87.9843 38.5281 86.3922 40.0173 84.5417 40.0173ZM68.632 32.2788V34.8093H74.8297C74.6484 36.2233 74.1638 37.2628 73.4207 37.9873C72.5161 38.8623 71.1071 39.8336 68.632 39.8336C64.8179 39.8336 61.8312 36.8323 61.8312 33.1136C61.8312 29.3948 64.8179 26.3936 68.632 26.3936C70.6943 26.3936 72.1948 27.1793 73.3023 28.1978L75.1312 26.4146C73.5823 24.9726 71.5217 23.8648 68.632 23.8648C63.4017 23.8648 59.0061 28.0141 59.0061 33.1136C59.0061 38.2131 63.4017 42.3623 68.632 42.3623C71.4589 42.3623 73.5823 41.4593 75.2515 39.7653C76.962 38.0976 77.4951 35.7526 77.4951 33.8591C77.4951 33.2711 77.4448 32.7303 77.3551 32.2788H68.632ZM133.689 34.2406C133.185 32.9088 131.628 30.4536 128.459 30.4536C125.318 30.4536 122.702 32.8668 122.702 36.4088C122.702 39.7443 125.291 42.3623 128.76 42.3623C131.566 42.3623 133.185 40.6946 133.85 39.7233L131.768 38.3706C131.074 39.3611 130.128 40.0173 128.76 40.0173C127.401 40.0173 126.427 39.4101 125.802 38.2131L133.971 34.9178L133.689 34.2406ZM125.361 36.2233C125.291 33.9273 127.19 32.7513 128.55 32.7513C129.616 32.7513 130.521 33.2711 130.822 34.0148L125.361 36.2233ZM118.721 42.0001H121.407V24.5001H118.721V42.0001ZM114.324 31.7801H114.234C113.631 31.0836 112.481 30.4536 111.023 30.4536C107.965 30.4536 105.168 33.0716 105.168 36.4281C105.168 39.7653 107.965 42.3623 111.023 42.3623C112.481 42.3623 113.631 41.7271 114.234 41.0096H114.324V41.8636C114.324 44.1403 113.077 45.3636 111.065 45.3636C109.424 45.3636 108.406 44.2086 107.986 43.2373L105.651 44.1876C106.324 45.7661 108.107 47.7086 111.065 47.7086C114.213 47.7086 116.869 45.9026 116.869 41.5083V30.8158H114.324V31.7801ZM111.253 40.0173C109.403 40.0173 107.854 38.5071 107.854 36.4281C107.854 34.3298 109.403 32.7986 111.253 32.7986C113.077 32.7986 114.514 34.3298 114.514 36.4281C114.514 38.5071 113.077 40.0173 111.253 40.0173ZM146.26 24.5001H139.838V42.0001H142.516V35.3693H146.26C149.234 35.3693 152.151 33.2711 152.151 29.9338C152.151 26.5983 149.227 24.5001 146.26 24.5001ZM146.33 32.9351H142.516V26.9343H146.33C148.33 26.9343 149.471 28.5531 149.471 29.9338C149.471 31.2883 148.33 32.9351 146.33 32.9351ZM162.884 30.4203C160.949 30.4203 158.937 31.2533 158.11 33.0996L160.486 34.0708C160.998 33.0996 161.938 32.7846 162.933 32.7846C164.322 32.7846 165.731 33.5983 165.752 35.0351V35.2188C165.268 34.9458 164.23 34.5416 162.954 34.5416C160.395 34.5416 157.787 35.9153 157.787 38.4791C157.787 40.8241 159.883 42.3343 162.24 42.3343C164.042 42.3343 165.036 41.5416 165.661 40.6193H165.752V41.9721H168.339V35.2591C168.339 32.1563 165.962 30.4203 162.884 30.4203ZM162.561 40.0103C161.685 40.0103 160.465 39.5868 160.465 38.5281C160.465 37.1736 161.987 36.6538 163.304 36.6538C164.484 36.6538 165.036 36.9076 165.752 37.2418C165.542 38.8623 164.112 40.0103 162.561 40.0103ZM177.762 30.8036L174.684 38.3898H174.592L171.41 30.8036H168.522L173.304 41.4051L170.575 47.3043H173.374L180.741 30.8036H177.762ZM153.623 42.0001H156.308V24.5001H153.623V42.0001Z" fill="black"/>
<defs>
<linearGradient id="paint0_linear_1048_342" x1="31.3791" y1="43.8063" x2="7.89123" y2="19.7163" gradientUnits="userSpaceOnUse">
<stop stop-color="#00A0FF"/>
<stop offset="0.0066" stop-color="#00A1FF"/>
<stop offset="0.2601" stop-color="#00BEFF"/>
<stop offset="0.5122" stop-color="#00D2FF"/>
<stop offset="0.7604" stop-color="#00DFFF"/>
<stop offset="1" stop-color="#00E3FF"/>
</linearGradient>
<linearGradient id="paint1_linear_1048_342" x1="48.6596" y1="27.9979" x2="13.9154" y2="27.9979" gradientUnits="userSpaceOnUse">
<stop stop-color="#FFE000"/>
<stop offset="0.4087" stop-color="#FFBD00"/>
<stop offset="0.7754" stop-color="#FFA500"/>
<stop offset="1" stop-color="#FF9C00"/>
</linearGradient>
<linearGradient id="paint2_linear_1048_342" x1="35.7259" y1="24.7854" x2="3.87451" y2="-7.88268" gradientUnits="userSpaceOnUse">
<stop stop-color="#FF3A44"/>
<stop offset="1" stop-color="#C31162"/>
</linearGradient>
<linearGradient id="paint3_linear_1048_342" x1="10.5551" y1="55.7533" x2="24.7782" y2="41.1657" gradientUnits="userSpaceOnUse">
<stop stop-color="#32A071"/>
<stop offset="0.0685" stop-color="#2DA771"/>
<stop offset="0.4762" stop-color="#15CF74"/>
<stop offset="0.8009" stop-color="#06E775"/>
<stop offset="1" stop-color="#00F076"/>
</linearGradient>
</defs>
</svg>
