<svg width="31" height="30" viewBox="0 0 31 30" fill="none" xmlns="http://www.w3.org/2000/svg">
<rect x="2" y="1.5" width="27" height="27" rx="13.5" fill="white"/>
<rect x="2" y="1.5" width="27" height="27" rx="13.5" stroke="white" stroke-width="3"/>
<path fill-rule="evenodd" clip-rule="evenodd" d="M26.54 15.2614C26.54 14.4459 26.4668 13.6618 26.3309 12.9091H15.5V17.3575H21.6891C21.4225 18.795 20.6123 20.013 19.3943 20.8284V23.7139H23.1109C25.2855 21.7118 26.54 18.7636 26.54 15.2614Z" fill="#4285F4"/>
<path fill-rule="evenodd" clip-rule="evenodd" d="M15.4999 26.4998C18.6049 26.4998 21.2081 25.4701 23.1108 23.7137L19.3942 20.8282C18.3645 21.5182 17.0472 21.926 15.4999 21.926C12.5047 21.926 9.96946 19.903 9.06514 17.1848H5.2231V20.1644C7.11537 23.9228 11.0045 26.4998 15.4999 26.4998Z" fill="#34A853"/>
<path fill-rule="evenodd" clip-rule="evenodd" d="M9.06523 17.1851C8.83523 16.4951 8.70455 15.758 8.70455 15.0001C8.70455 14.2421 8.83523 13.5051 9.06523 12.8151V9.83551H5.22318C4.44432 11.388 4 13.1444 4 15.0001C4 16.8557 4.44432 18.6121 5.22318 20.1646L9.06523 17.1851Z" fill="#FBBC05"/>
<path fill-rule="evenodd" clip-rule="evenodd" d="M15.4999 8.07386C17.1883 8.07386 18.7042 8.65409 19.8961 9.79364L23.1945 6.49523C21.2029 4.63955 18.5997 3.5 15.4999 3.5C11.0045 3.5 7.11537 6.07705 5.2231 9.83545L9.06514 12.815C9.96946 10.0968 12.5047 8.07386 15.4999 8.07386Z" fill="#EA4335"/>
</svg>
