<svg width="182" height="140" viewBox="0 0 182 140" fill="none" xmlns="http://www.w3.org/2000/svg">
<path opacity="0.3" d="M72.3677 7.46099C72.3677 7.46099 112.977 1.84714 118.359 29.0103C121.207 43.385 142.157 32.9973 154.112 37.9859C162.623 41.5378 158.225 53.5682 163.338 56.7064C188.534 72.1685 181.979 139.791 177.086 139.78L9.06684 139.504C9.06684 139.504 -4.5226 119.23 7.77979 107.392C20.0814 95.5531 11.6354 90.1397 10.14 85.564C8.42371 80.3105 2.27651 65.3113 19.7869 58.7445C28.7771 55.3732 31.5699 46.0419 32.2505 39.8116C33.4147 29.167 39.3887 19.6934 48.4555 14.5203C54.1966 11.2452 61.9405 8.5556 72.3677 7.46099Z" fill="#DCECEB"/>
<path d="M98.2388 19.9853L100.6 22.6733C100.775 22.7402 100.917 22.6336 101.272 22.3726C101.908 21.9065 102.545 21.4403 103.196 20.9964C103.299 20.9264 103.51 20.924 103.626 20.9805C104.322 21.3162 104.997 21.6941 105.696 22.0226C105.912 22.1244 106.007 22.2111 106.008 22.4625C106.01 23.468 106.04 24.4736 106.059 25.4679C106.929 25.7654 109.193 25.9412 109.969 25.7639C110.123 24.818 110.295 23.8547 110.429 22.8857C110.47 22.5842 110.566 22.4768 110.878 22.3981C111.6 22.2151 112.308 21.9661 113.006 21.7044C113.288 21.5986 113.478 21.566 113.717 21.807C114.335 22.4307 114.992 23.0162 115.622 23.6295C115.791 23.7942 115.937 23.834 116.117 23.6781C116.968 22.947 117.818 22.2143 118.669 21.4825C118.878 21.3027 118.716 21.1531 118.619 21.0155C118.129 20.3179 117.643 19.617 117.13 18.9361C116.937 18.6807 116.936 18.4978 117.099 18.2177C117.533 17.4763 117.918 16.7071 118.354 15.8909C119.349 15.8678 120.447 15.8424 121.576 15.8161C121.887 14.5441 121.959 13.2681 121.83 11.9373C120.749 11.7583 119.668 11.5785 118.714 11.4202C118.369 10.4553 118.068 9.55475 117.716 8.67413C117.614 8.41957 117.651 8.29229 117.826 8.1141C118.433 7.49679 119.021 6.86039 119.624 6.23911C119.754 6.10467 119.831 5.99489 119.712 5.80954C119.105 4.87323 118.428 3.99977 117.564 3.27905C117.371 3.11836 117.241 3.14143 117.06 3.2703C116.333 3.78738 115.597 4.29093 114.872 4.81039C114.697 4.93608 114.58 4.96233 114.363 4.84857C113.612 4.454 112.842 4.09046 112.065 3.7484C111.867 3.66089 111.832 3.55907 111.828 3.37849C111.805 2.37298 111.774 1.36747 111.745 0.336497C110.473 0.0564813 109.212 -0.0747762 107.901 0.0461398C107.717 1.14552 107.535 2.23774 107.361 3.28303C106.341 3.61873 105.353 3.94409 104.296 4.29252C103.734 3.76351 103.092 3.14938 102.439 2.5464C101.904 2.05159 102.038 2.01421 101.399 2.46366C101.339 2.50662 101.262 2.5273 101.193 2.55833C100.686 3.00063 100.18 3.44292 99.6735 3.88443C99.5793 4.00296 99.5003 4.13978 99.387 4.23604C99.0918 4.48582 99.0527 4.70618 99.3096 5.03949C99.845 5.73396 100.337 6.46264 100.83 7.18893C100.894 7.28439 100.906 7.47134 100.857 7.57714C100.538 8.26524 100.158 8.9271 99.8753 9.62873C99.7373 9.97239 99.5713 10.0496 99.2346 10.0511C98.2787 10.0559 97.3236 10.0997 96.2719 10.1315C96.173 11.4297 96.0764 12.6962 95.9791 13.9769C96.2192 14.0215 96.3573 14.0493 96.4961 14.0724C97.3515 14.214 98.2053 14.3635 99.0622 14.49C99.3056 14.5258 99.3862 14.6356 99.4604 14.8631C99.7133 15.6451 100.017 16.4104 100.275 17.19C100.315 17.3109 100.266 17.5177 100.18 17.614C99.7054 18.1414 99.2011 18.6433 98.7159 19.1612C98.3218 19.5796 98.1773 19.7364 98.2388 19.9853ZM104.613 16.6761C102.503 14.2737 102.746 10.6207 105.155 8.51662C107.565 6.41252 111.229 6.65515 113.339 9.05756C115.45 11.46 115.207 15.1129 112.797 17.217C110.387 19.3203 106.723 19.0785 104.613 16.6761Z" fill="#F7CC7F"/>
<path d="M107.543 29.9347L103.054 34.4905C102.958 34.8103 103.168 35.0489 103.682 35.6463C104.601 36.7139 105.52 37.7823 106.4 38.8808C106.539 39.0535 106.571 39.4282 106.485 39.6429C105.979 40.9237 105.394 42.1742 104.9 43.4597C104.747 43.8583 104.605 44.0381 104.155 44.0731C102.358 44.2107 100.565 44.3992 98.7893 44.5671C98.3744 46.1525 98.364 50.2 98.7846 51.554C100.496 51.7011 102.242 51.8777 103.992 51.9851C104.537 52.0185 104.742 52.1744 104.925 52.717C105.348 53.9755 105.888 55.1997 106.45 56.4057C106.678 56.8941 106.761 57.2267 106.362 57.6833C105.331 58.8662 104.372 60.1111 103.36 61.3116C103.088 61.6345 103.037 61.8986 103.339 62.1993C104.76 63.6137 106.184 65.0257 107.606 66.4401C107.955 66.7878 108.2 66.4791 108.434 66.289C109.616 65.3256 110.804 64.3679 111.952 63.3655C112.383 62.9893 112.709 62.9622 113.232 63.2152C114.615 63.8866 116.042 64.4673 117.56 65.1315C117.735 66.896 117.928 68.8441 118.125 70.8464C120.441 71.229 122.732 71.1861 125.094 70.7788C125.27 68.8338 125.446 66.888 125.6 65.1729C127.279 64.4291 128.85 63.7736 130.376 63.0306C130.818 62.8151 131.05 62.8636 131.391 63.1507C132.576 64.1467 133.792 65.1061 134.984 66.0933C135.242 66.3065 135.448 66.4298 135.764 66.1919C137.356 64.9891 138.827 63.6686 140 62.0363C140.261 61.6727 140.202 61.4436 139.948 61.1397C138.926 59.9178 137.927 58.6761 136.901 57.4582C136.652 57.163 136.59 56.9594 136.764 56.5592C137.369 55.1711 137.915 53.7543 138.423 52.3272C138.553 51.9628 138.73 51.8873 139.053 51.8562C140.847 51.6796 142.641 51.4903 144.48 51.301C144.81 49.0028 144.876 46.7444 144.483 44.4303C142.493 44.2513 140.516 44.0739 138.623 43.9044C137.886 42.1368 137.172 40.4257 136.408 38.5937C137.279 37.5253 138.29 36.301 139.281 35.0609C140.094 34.0426 140.178 34.2765 139.29 33.2018C139.205 33.0992 139.157 32.9663 139.092 32.847C138.234 32.0061 137.376 31.1653 136.518 30.3252C136.293 30.1733 136.038 30.0524 135.851 29.8639C135.365 29.373 134.966 29.3333 134.405 29.8344C133.235 30.8789 131.998 31.851 130.766 32.8239C130.605 32.9512 130.271 32.9973 130.076 32.9241C128.803 32.4492 127.568 31.8622 126.275 31.4557C125.643 31.2568 125.483 30.972 125.434 30.373C125.298 28.6754 125.091 26.9834 124.894 25.1195C122.559 25.1179 120.283 25.1163 117.98 25.1147C117.933 25.5475 117.901 25.7965 117.879 26.0455C117.74 27.584 117.588 29.1217 117.477 30.6617C117.445 31.0993 117.26 31.2576 116.863 31.4183C115.499 31.9727 114.172 32.6139 112.812 33.1771C112.601 33.2646 112.225 33.2058 112.04 33.0649C111.033 32.2917 110.07 31.4636 109.078 30.6705C108.28 30.0277 107.979 29.7923 107.543 29.9347ZM114.313 40.8179C118.325 36.7457 124.889 36.6877 128.972 40.6874C133.057 44.6872 133.115 51.231 129.103 55.3023C125.091 59.3745 118.528 59.4326 114.444 55.4328C110.359 51.433 110.301 44.8901 114.313 40.8179Z" fill="#F47458"/>
<path d="M116.838 15.6705C116.834 15.669 116.828 15.6674 116.823 15.665C116.678 15.6125 116.53 15.5663 116.38 15.5234C116.329 15.5083 116.278 15.4932 116.227 15.4796C116.173 15.4653 116.119 15.4526 116.064 15.4399C116.009 15.4263 115.953 15.4136 115.897 15.4017C115.844 15.3905 115.791 15.3802 115.738 15.3698C115.678 15.3587 115.619 15.3476 115.559 15.338C115.507 15.3293 115.456 15.3213 115.405 15.3142C115.341 15.3046 115.275 15.2967 115.21 15.2895C115.162 15.2839 115.115 15.2784 115.067 15.2736C114.992 15.2664 114.917 15.2617 114.842 15.2561C114.802 15.2537 114.763 15.2505 114.723 15.2481C114.607 15.2426 114.491 15.2394 114.374 15.2394H60.6725C60.5472 15.2394 60.4236 15.2426 60.2999 15.2489C60.0533 15.2617 59.8092 15.2863 59.5698 15.3229C59.4501 15.3412 59.3312 15.3627 59.2131 15.3866C56.1491 16.0134 53.7896 18.5765 53.4689 21.7426C53.4441 21.986 53.4314 22.2334 53.4314 22.4832V111.879V132.274C53.4314 135.409 55.4222 138.078 58.2085 139.087C58.2205 139.092 58.2333 139.095 58.246 139.099C58.3841 139.149 58.5245 139.193 58.6665 139.234C58.7176 139.249 58.7687 139.264 58.8205 139.278C58.8748 139.292 58.9291 139.305 58.9841 139.317C59.0392 139.331 59.095 139.344 59.1509 139.356C59.2035 139.367 59.2562 139.377 59.3097 139.387C59.3695 139.399 59.4294 139.41 59.4892 139.419C59.5403 139.428 59.5913 139.436 59.6424 139.443C59.707 139.453 59.7725 139.461 59.8379 139.468C59.8858 139.473 59.9328 139.479 59.9807 139.484C60.0557 139.491 60.1307 139.496 60.2057 139.501C60.2456 139.504 60.2847 139.507 60.3246 139.509C60.4403 139.515 60.5568 139.518 60.6741 139.518H114.376C114.626 139.518 114.873 139.505 115.116 139.481C118.524 139.134 121.234 136.424 121.58 133.015C121.604 132.771 121.617 132.524 121.617 132.274V42.879V22.484C121.616 19.3489 119.625 16.6792 116.838 15.6705Z" fill="#355389"/>
<path d="M118.105 25.1123H56.9414V129.645H118.105V25.1123Z" fill="#EAFCFC"/>
<path opacity="0.2" d="M103.165 76.3055C111.74 67.7562 111.74 53.895 103.165 45.3456C94.5893 36.7963 80.6859 36.7963 72.1105 45.3457C63.5351 53.895 63.5351 67.7562 72.1105 76.3055C80.6859 84.8549 94.5893 84.8549 103.165 76.3055Z" fill="#3CB4C5"/>
<path opacity="0.3" d="M100.002 21.8277H75.1437C74.7806 21.8277 74.487 21.5342 74.487 21.173C74.487 20.8111 74.7814 20.5183 75.1437 20.5183H100.002C100.365 20.5183 100.659 20.8119 100.659 21.173C100.66 21.5342 100.365 21.8277 100.002 21.8277Z" fill="#DAEEF7"/>
<path opacity="0.2" d="M101.312 74.4589C108.865 66.9294 108.865 54.7218 101.312 47.1923C93.76 39.6629 81.5152 39.6629 73.9628 47.1923C66.4104 54.7218 66.4104 66.9294 73.9628 74.4589C81.5152 81.9883 93.76 81.9883 101.312 74.4589Z" fill="#3CB4C5"/>
<path opacity="0.2" d="M98.875 72.0289C105.081 65.8415 105.081 55.8097 98.875 49.6223C92.6688 43.4349 82.6065 43.4349 76.4002 49.6223C70.194 55.8097 70.194 65.8415 76.4002 72.0289C82.6065 78.2163 92.6688 78.2163 98.875 72.0289Z" fill="#3CB4C5"/>
<path opacity="0.3" d="M90.4925 134.681C90.4925 136.341 89.148 137.687 87.4883 137.687C85.8287 137.687 84.4842 136.341 84.4842 134.681C84.4842 133.021 85.8287 131.677 87.4883 131.677C89.148 131.677 90.4925 133.022 90.4925 134.681Z" fill="#DAEEF7"/>
<path opacity="0.2" d="M118.105 125.259H56.9414V129.645H118.105V125.259Z" fill="#3CB4C5"/>
<path opacity="0.2" d="M118.105 25.1123H56.9414V30.6593H118.105V25.1123Z" fill="#3CB4C5"/>
<path d="M44.4308 84.245L44.6454 84.4367C44.7556 84.5354 44.9215 84.5314 45.0165 84.4272L48.8226 80.2413C48.9167 80.137 48.904 79.9732 48.7938 79.8745L48.5792 79.6828C48.4691 79.5842 48.3031 79.5882 48.2082 79.6924L44.4021 83.8783C44.3071 83.9817 44.3207 84.1464 44.4308 84.245Z" fill="#13375B"/>
<path d="M31.5268 80.8443C32.0359 80.4306 35.9696 82.1576 35.9194 82.7582C35.8691 83.3596 38.6642 89.1875 38.6642 89.1875L43.494 85.3348L43.4956 85.3356C43.5387 85.1964 43.9959 83.6977 44.0183 83.4296C44.0414 83.1488 44.8577 82.6564 45.2367 82.7288C45.6157 82.8012 44.9128 83.2769 44.8665 83.3644C44.7404 83.6022 45.2263 83.6914 45.2263 83.6914C45.2263 83.6914 46.6219 82.9253 46.6514 82.4742C46.681 82.024 46.969 81.0789 47.2706 81.277C47.4262 81.3788 47.4246 82.0494 47.3759 82.3668C47.4653 82.0057 47.5922 81.5984 47.7159 81.5578C47.9417 81.4838 48.0542 81.771 48.0127 81.9126C47.972 82.0534 47.6073 83.5863 47.4964 83.7582C47.3879 83.9268 45.1346 85.7429 44.8098 86.1375C44.8098 86.1375 38.5621 93.2819 38.1176 93.4688C37.7275 93.6327 36.3359 91.1706 35.0209 89.5359C33.7083 87.9027 29.9373 82.1377 31.5268 80.8443Z" fill="#F7A491"/>
<path d="M18.9204 133.38C18.9204 133.38 18.0618 134.217 18.0427 134.525C18.0235 134.833 17.9669 138.127 18.3172 138.435C18.6675 138.743 19.6968 138.961 19.3664 139.307C19.1167 139.569 17.1921 139.512 15.9162 139.442C15.5436 139.422 15.0768 136.45 14.9292 136.014C14.7153 135.38 14.1943 133.95 14.389 133.509C14.4839 133.293 14.938 132.851 15.5771 132.437C16.2497 132.003 16.8937 131.035 16.8937 131.035L18.9204 133.38Z" fill="#F48C7F"/>
<path d="M27.814 135.331C27.814 135.331 27.0456 137.502 27.0448 137.508C26.9874 137.851 26.7632 138.702 26.7632 139.014C26.7632 140.189 32.059 138.017 30.8725 137.497C30.7647 137.45 30.428 137.073 30.3929 136.673C30.3386 136.058 30.8389 135.284 30.8389 135.284L27.814 135.331Z" fill="#F7A491"/>
<path d="M36.1221 94.9016C36.1221 94.9016 36.5082 98.7939 36.5082 98.852C36.5082 105.148 37.7562 117.447 37.5184 118.631C36.9399 121.517 30.7097 136.246 30.7097 136.246L27.3425 135.844L31.7303 118.209L30.1153 111.111L27.8308 97.0804L36.1221 94.9016Z" fill="#355389"/>
<path d="M24.8219 98.3445L24.1827 102.033L22.4544 117.216L15.8716 132.055C15.8716 132.055 16.7979 134.214 18.164 134.517L28.6415 119.282L35.1502 99.7883L34.922 95.4576L24.8219 98.3445Z" fill="#13375B"/>
<path d="M37.4649 85.634L32.7963 86.1105C32.7963 86.1105 32.5824 82.2817 32.5824 80.4553C32.5824 78.239 32.7707 75.3847 33.0388 75.4468C33.7897 75.6194 34.8007 76.0339 35.4031 76.8612C37.4849 79.7242 37.4649 85.634 37.4649 85.634Z" fill="#E25A44"/>
<path d="M35.1717 80.0647C35.2699 80.74 37.0644 99.1081 37.0644 99.1081C28.5633 103.215 23.8723 99.84 23.8723 99.84C23.8723 99.84 24.1508 86.9418 23.8173 85.1861C23.597 84.0247 23.3217 76.3067 24.0742 76.0903C25.0397 75.8127 26.1464 75.5184 27.3536 75.3935C28.3838 75.2869 32.3854 75.2248 33.1011 75.4651C33.0995 75.4643 34.76 77.2231 35.1717 80.0647Z" fill="#F47458"/>
<path d="M15.6194 132.416C15.6194 132.416 17.5982 137.989 18.3722 138.258C18.5781 138.329 19.5643 138.511 19.751 138.947C19.8069 139.078 19.751 139.518 19.751 139.518H15.6266C15.6266 139.518 15.1047 137.062 14.8989 135.983C14.8989 135.983 13.8073 133.347 13.9286 133.108C14.0499 132.868 15.6194 132.416 15.6194 132.416Z" fill="#13375B"/>
<path d="M26.4615 139.402L27.068 137.485C27.068 137.485 28.3415 138.025 28.9782 137.935C29.6149 137.845 30.8581 137.485 30.8581 137.485C33.4003 138.322 35.4829 138.729 35.1039 139.402H26.4615Z" fill="#13375B"/>
<path d="M38.12 93.4696C38.1392 93.4616 38.2086 93.4076 38.2485 93.3741C38.0977 91.5747 38.1248 89.831 38.6889 89.2415C38.6754 89.2137 38.5517 88.9512 38.4232 88.6791C37.7689 89.185 37.4577 90.5302 37.5798 92.7131C37.5886 92.8634 37.6317 92.978 37.666 93.1649C37.8559 93.3741 38.0283 93.5086 38.12 93.4696Z" fill="#F7A491"/>
<path d="M15.4518 99.3022C15.4462 99.2625 15.4462 99.2235 15.4494 99.1837C15.5747 97.9117 16.6303 87.2305 16.8083 86.7763C16.9687 86.3666 21.7035 79.5921 21.7035 79.5921L24.0311 82.7638L19.4773 88.8398C19.3752 89.2256 17.7323 96.436 17.7323 96.436C17.7323 96.436 17.3956 97.7502 17.2447 98.5377C17.3134 98.7271 17.3812 98.9069 17.441 99.0532C17.5918 99.3675 17.7698 99.6252 17.9318 99.8424C18.1352 100.115 18.472 100.712 18.5134 100.871C18.5613 101.056 18.6483 101.442 18.6978 101.674C18.7472 101.907 18.8143 102.178 18.8254 102.304C18.8326 102.382 18.9116 102.534 18.9723 102.643C19.0632 102.804 18.9084 102.994 18.7321 102.936C18.5669 102.881 18.4376 102.667 18.3586 102.534C18.1344 102.156 18.0147 101.468 17.9597 101.505C17.9038 101.542 17.7075 102.709 17.6764 102.841C17.6453 102.973 17.4099 104.328 17.2767 104.576C17.1434 104.823 16.9679 104.782 16.9216 104.627C16.8817 104.493 17.0684 102.596 17.0684 102.596C17.0684 102.596 17.0915 102.355 16.9854 102.43C16.8793 102.506 16.7061 104.227 16.6327 104.479C16.5593 104.732 16.391 104.865 16.2489 104.662C16.0758 104.416 16.3734 102.59 16.3734 102.59C16.3734 102.59 16.4069 102.36 16.3088 102.382C16.2106 102.403 16.0878 103.87 16.012 103.997C15.9354 104.124 15.7431 104.17 15.6513 103.958C15.5428 103.709 15.8236 102.081 15.8236 102.081C15.8236 102.081 15.8101 101.951 15.7486 101.994C15.6872 102.037 15.4933 103.281 15.3672 103.396C15.2611 103.492 15.1725 103.399 15.1725 103.399C14.9403 103.241 15.2962 102.058 15.293 101.47C15.2898 100.882 15.5619 100.221 15.4805 99.521C15.475 99.478 15.4606 99.3698 15.4518 99.3022Z" fill="#F8A492"/>
<path d="M18.0052 83.8831L22.0498 86.5997C22.0498 86.5997 24.3295 83.2061 25.5535 81.9977C27.0863 80.4847 24.995 75.8477 24.0071 76.1102C21.7977 76.6973 18.0052 83.8831 18.0052 83.8831Z" fill="#F47458"/>
<path d="M27.6497 71.4223L27.0449 75.411C27.0449 75.411 29.2543 80.1601 30.5733 79.7488C31.68 79.4036 30.9994 75.2009 30.9994 75.2009C30.9994 75.2009 30.3961 72.9441 30.5773 71.8145C30.7576 70.6849 27.6497 71.4223 27.6497 71.4223Z" fill="#F7A491"/>
<path d="M30.5764 71.8145C30.7576 70.6849 27.6497 71.4223 27.6497 71.4223L27.5994 71.7533C27.6904 71.9744 27.8013 72.1637 27.9361 72.3093C28.6303 73.0563 29.7155 73.5057 30.6538 73.5391C30.5605 72.9298 30.5022 72.2775 30.5764 71.8145Z" fill="#F47458"/>
<path d="M27.1398 65.7791C27.052 65.7472 26.436 70.3222 27.605 71.5806C28.7747 72.8391 31.0528 73.2512 31.8699 72.26C32.7739 71.163 32.7284 66.246 30.91 64.9509C29.0923 63.6567 27.1398 65.7791 27.1398 65.7791Z" fill="#F7A491"/>
<path d="M30.2182 62.504C28.8131 62.7904 27.9026 63.6495 27.5683 64.0162C26.93 64.0918 26.0626 64.4442 25.1674 65.9278C24.0662 67.7519 24.8793 69.7725 26.1616 70.7637C27.443 71.7549 27.4255 72.9004 27.4255 72.9004L27.6282 72.3077C27.7774 71.8591 27.8388 71.3834 27.7885 70.9124C27.7582 70.63 27.6984 70.3246 27.5811 70.0732C27.2731 69.4113 28.2434 68.9714 28.5154 68.4201C28.7253 67.9961 28.7349 67.0256 29.0652 66.3248L29.4594 65.7894C29.4594 65.7894 30.369 65.0814 31.2587 65.2811C32.15 65.4815 32.0215 62.1365 30.2182 62.504Z" fill="#184655"/>
<path d="M28.4563 69.2347C28.4659 69.7932 28.2122 70.2498 27.8898 70.2553C27.5675 70.2609 27.2994 69.813 27.2898 69.2546C27.2802 68.6962 27.5339 68.2395 27.8563 68.234C28.1779 68.2292 28.4468 68.6771 28.4563 69.2347Z" fill="#F7A491"/>
<path d="M30.3554 70.525L32.1181 70.4336C32.1181 70.4336 32.1125 71.1058 31.3385 71.1678C30.3937 71.2442 30.3554 70.525 30.3554 70.525Z" fill="white"/>
<path d="M144.538 85.9362C144.538 85.9362 147.934 93.3646 148.653 94.7456C149.373 96.1266 150.713 100.382 150.774 100.593C150.836 100.804 149.061 103.18 149.397 103.302C149.732 103.424 150.204 102.104 150.557 102.308C150.91 102.511 151.744 105.91 151.963 105.77C152.372 105.509 151.531 103.672 151.746 103.586C151.961 103.5 152.447 105.583 152.858 105.569C153.268 105.556 152.214 103.638 152.338 103.493C152.463 103.348 153.569 105.167 153.816 104.834C153.95 104.653 152.793 103.239 153.04 103.147C153.288 103.055 154.338 104.001 154.473 103.778C154.607 103.554 153.487 103.101 153.19 102.423C152.893 101.745 152.331 101.404 152.172 100.193C152.013 98.9824 151.95 94.6597 150.863 92.3837C149.774 90.1078 147.384 85.0731 147.384 85.0731L144.538 85.9362Z" fill="#F7A491"/>
<path d="M145.618 77.6638C145.694 75.8302 145.424 74.0204 144.605 72.3141C143.901 70.8456 142.157 70.0127 140.566 70.0103C135.516 70.004 134.875 76.6838 131.66 79.2612C130.678 80.0487 129.58 80.6899 128.65 81.5387C125.218 84.6738 126.764 90.4778 129.916 93.227C132.103 95.1346 135.539 96.2181 138.235 94.7273C139.642 93.9485 140.71 92.655 141.47 91.2375C142.55 89.2256 143.247 86.9044 144.014 84.7597C144.832 82.4766 145.517 80.1005 145.618 77.6638Z" fill="#13375B"/>
<path d="M127.573 70.5306C127.806 70.3619 128.396 71.5616 128.68 71.5496C128.963 71.5377 128.484 69.8711 128.697 69.743C129.091 69.506 129.335 71.5361 129.522 71.4391C129.71 71.3412 129.561 69.2355 129.967 69.3461C130.374 69.4575 129.893 71.5457 130.141 71.5305C130.39 71.5154 130.413 69.5482 130.931 69.428C131.208 69.3636 130.464 72.785 130.714 73.081C130.965 73.3769 132.03 72.2886 132.301 72.5026C132.572 72.7166 130.214 74.3156 130.177 74.5304C130.141 74.7444 129.653 79.3384 129.717 80.857C130.243 80.8864 133.215 81.4735 133.708 81.4902C133.381 82.4504 134.184 83.4431 133.916 84.4145C132.25 84.2673 127.294 83.891 126.983 83.5346C126.037 82.4496 127.772 75.7427 128.171 74.567C128.571 73.3904 128.18 72.902 128.201 72.1805C128.222 71.4589 127.339 70.6992 127.573 70.5306Z" fill="#F7A491"/>
<path d="M135.295 139.123C135.715 138.814 136.054 138.61 137.395 137.962C137.483 137.92 137.801 137.717 137.916 137.647C138.208 137.469 138.5 137.189 138.752 136.909C138.992 136.642 139.107 135.785 139.161 135.101C139.023 133.576 136.806 109.103 136.337 106.454C135.855 103.719 136.59 99.548 136.59 99.548L138.303 98.9045L141.553 110.135L141.296 118.685C141.296 118.685 142.061 121.149 142.157 122.621C142.254 124.094 141.052 136.047 141.052 136.047C141.052 136.474 141.069 136.861 141.117 137.103C141.205 137.55 141.696 138.47 141.471 138.891C141.246 139.312 140.988 139.417 140.988 139.417L135.148 139.511C134.828 139.516 135.038 139.311 135.295 139.123Z" fill="#F48C7F"/>
<path d="M144.159 98.6706C144.159 98.6706 146.187 101.721 146.67 104.245C147.152 106.77 146.315 114.527 147.244 117.836C147.747 119.626 149.653 122.392 149.943 124.706C150.232 127.02 151.24 133.698 151.24 133.698C151.393 134.399 151.632 135.266 151.941 135.669C152.131 135.916 152.478 136.229 152.706 136.674C153.06 137.368 152.865 138.402 152.603 138.971C152.469 139.263 152.613 139.263 152.307 139.357C151.402 139.636 150.44 139.166 150.055 138.301C149.84 137.817 149.651 137.172 149.613 136.359C149.573 135.497 149.438 134.813 149.294 134.307L142.812 118.452L138.118 104.77L136.916 97.7231L144.159 98.6706Z" fill="#F79C8D"/>
<path d="M149.88 137.846C151.282 138.101 152.217 137.281 152.702 136.668C153.059 137.363 153.233 138.401 152.97 138.972C152.739 139.476 152.064 139.461 151.532 139.481C150.97 139.501 150.535 139.189 150.256 138.7C150.126 138.472 149.992 138.187 149.88 137.846Z" fill="#13375B"/>
<path d="M137.916 137.647C139.461 138.043 140.603 137.773 141.241 137.516C141.406 137.983 141.624 138.568 141.509 138.905C141.367 139.318 141.165 139.412 140.987 139.417C139.576 139.453 135.819 139.504 134.743 139.518C134.593 139.519 134.51 139.344 134.607 139.229C134.873 138.911 137.801 137.717 137.916 137.647Z" fill="#13375B"/>
<path d="M142.844 118.154C142.722 118.162 142.6 118.17 142.477 118.177C142.471 118.177 142.465 118.178 142.458 118.178C142.338 118.185 142.217 118.192 142.096 118.198C142.089 118.199 142.082 118.199 142.074 118.199C141.952 118.205 141.83 118.21 141.708 118.216C141.702 118.216 141.695 118.217 141.69 118.217C141.565 118.222 141.441 118.227 141.317 118.231C139.933 118.276 138.223 118.259 137.126 118.073C136.566 112.49 136.358 107.396 136.151 106.268C135.649 103.533 136.588 99.2163 136.588 99.2163L136.512 98.1917L136.752 97.5378L144.285 98.4844C144.285 98.4844 146.393 101.534 146.895 104.059C147.397 106.583 146.527 114.341 147.493 117.65C147.495 117.65 145.344 117.985 142.844 118.154Z" fill="#13375B"/>
<path d="M132.586 81.0718C132.586 81.0718 138.226 80.4839 139.89 81.0384C141.554 81.5936 142.723 83.9642 141.834 85.2903C140.946 86.6164 132.942 84.8798 132.942 84.8798L132.586 81.0718Z" fill="#EAB054"/>
<path d="M142.532 80.5491C142.532 80.5491 145.322 80.3773 146.425 81.5427C147.529 82.7081 143.977 91.9263 143.776 93.4099C143.575 94.8936 144.799 98.8368 144.799 98.8368C144.799 98.8368 138.246 100.114 136.373 98.9132C136.373 98.9132 136.029 88.1445 136.23 87.0857C136.43 86.0261 138.246 81.8211 138.647 81.3971C139.049 80.9723 142.532 80.5491 142.532 80.5491Z" fill="#F7CC7F"/>
<path d="M141.604 76.9375C141.604 76.9375 141.618 77.0171 141.644 77.1523C141.769 77.8022 142.247 79.9572 142.571 80.5499C142.962 81.2658 141.233 83.5497 139.568 83.2713C139.073 83.1886 139.987 81.1728 139.943 80.9596C139.859 80.5507 139.745 79.993 139.628 79.4219C139.562 79.0997 139.495 78.7727 139.432 78.4649C139.254 77.5914 139.109 76.8771 139.109 76.8771L141.604 76.9375Z" fill="#F7A491"/>
<path opacity="0.5" d="M141.644 77.1531C141.618 77.0179 141.604 76.9383 141.604 76.9383L139.109 76.8779C139.109 76.8779 139.254 77.5922 139.432 78.4657C139.495 78.7711 139.561 79.0965 139.626 79.4171C140.012 79.3622 140.414 79.1808 140.818 78.8388C141.257 78.4657 141.546 78.017 141.72 77.5389C141.689 77.3854 141.663 77.2533 141.644 77.1531Z" fill="#F47458"/>
<path d="M139.925 71.4438C139.925 71.4438 141.101 71.3126 141.837 72.2361C142.575 73.1597 143.369 76.0155 141.538 77.5684C139.707 79.1212 137.898 77.3631 137.63 75.5001C137.362 73.6362 137.257 71.377 139.925 71.4438Z" fill="#F7A491"/>
<path d="M137.088 75.4722C137.307 75.8835 137.674 76.1118 137.908 75.9813C138.141 75.8509 138.154 75.4118 137.936 74.9997C137.717 74.5884 137.35 74.3601 137.116 74.4906C136.882 74.621 136.869 75.0609 137.088 75.4722Z" fill="#F7A491"/>
<path d="M139.793 71.1391C139.793 71.1391 141.364 73.855 142.488 73.9807C143.611 74.1063 143.759 75.5494 143.759 75.5494C143.759 75.5494 143.357 72.2242 142.244 71.583C141.132 70.9411 139.793 71.1391 139.793 71.1391Z" fill="#13375B"/>
<path d="M142.193 74.6624C142.101 75.1445 142.286 75.5868 142.604 75.6504C142.923 75.7141 143.254 75.3744 143.345 74.8915C143.437 74.4094 143.253 73.9671 142.934 73.9035C142.616 73.8399 142.284 74.1803 142.193 74.6624Z" fill="#F7A491"/>
<path d="M140.649 75.9177L139.044 76.1468C139.044 76.1468 139.168 76.749 139.877 76.6687C140.742 76.5708 140.649 75.9177 140.649 75.9177Z" fill="white"/>
<path d="M146.305 91.1897C146.305 91.1897 143.154 86.4899 142.871 84.7636C142.587 83.0374 144.146 80.9007 145.738 81.0662C147.329 81.2316 150.049 89.0943 150.049 89.0943L146.305 91.1897Z" fill="#F7CC7F"/>
<path d="M84.1139 58.9545C84.7267 58.9545 85.298 58.9545 85.8693 58.9545C85.9627 58.9545 86.0688 58.9807 86.147 58.9465C86.2484 58.902 86.3282 58.8089 86.4175 58.7373C86.3266 58.6681 86.2372 58.5416 86.143 58.5384C85.6172 58.5185 85.0898 58.5281 84.5624 58.5281C84.4251 58.5281 84.2879 58.5281 84.1307 58.5281C84.1307 58.1367 84.1307 57.7819 84.1307 57.381C84.7395 57.381 85.3331 57.3858 85.926 57.3778C86.1103 57.3754 86.3944 57.4542 86.4016 57.171C86.4087 56.8727 86.1207 56.961 85.9388 56.9586C85.3435 56.9506 84.7491 56.9554 84.1331 56.9554C84.1331 56.5632 84.1331 56.2068 84.1331 55.7979C84.7251 55.7979 85.318 55.8043 85.91 55.794C86.1007 55.7908 86.4127 55.8918 86.4032 55.5776C86.3944 55.2745 86.0848 55.3787 85.8933 55.3755C85.3116 55.3652 84.7291 55.3715 84.1315 55.3715C84.1315 54.9754 84.1315 54.6198 84.1315 54.2189C84.7092 54.2189 85.2677 54.2189 85.8263 54.2189C85.9316 54.2189 86.0473 54.2419 86.1398 54.2077C86.2428 54.1688 86.3258 54.0757 86.4175 54.0065C86.3266 53.9365 86.238 53.8092 86.1438 53.8052C85.6411 53.7837 85.1377 53.7933 84.6342 53.7925C84.5073 53.7925 84.3804 53.7925 84.2536 53.7925C84.3373 52.4584 85.8638 51.1809 87.4588 51.0782C89.1105 50.9724 90.7311 52.1784 91.0383 53.7925C90.5093 53.7925 89.989 53.7917 89.4688 53.7925C89.3403 53.7925 89.2039 53.7718 89.0858 53.8084C88.994 53.837 88.9254 53.9396 88.8472 54.0097C88.9278 54.0781 89.0044 54.1966 89.0914 54.2053C89.3698 54.2324 89.6523 54.2197 89.9332 54.2205C90.3186 54.2213 90.7032 54.2205 91.1213 54.2205C91.1213 54.6071 91.1213 54.9698 91.1213 55.3723C90.5683 55.3723 90.0209 55.3723 89.4736 55.3723C89.3802 55.3723 89.2765 55.3469 89.1951 55.3779C89.0706 55.4248 88.9613 55.5108 88.8456 55.5808C88.9581 55.6532 89.0674 55.7836 89.1831 55.7884C89.709 55.8115 90.2364 55.7987 90.763 55.7987C90.8779 55.7987 90.992 55.7987 91.1301 55.7987C91.1301 56.1853 91.1301 56.5409 91.1301 56.9554C90.5755 56.9554 90.0193 56.9554 89.4624 56.9554C89.3451 56.9554 89.2182 56.9268 89.1137 56.9641C89.0132 56.9999 88.9366 57.1026 88.8496 57.1765C88.9326 57.2426 89.0108 57.3579 89.0985 57.3659C89.377 57.3921 89.6595 57.3802 89.9404 57.381C90.3258 57.3818 90.7119 57.381 91.1253 57.381C91.1253 57.7588 91.1253 58.1144 91.1253 58.5289C90.6401 58.5289 90.1422 58.5289 89.6435 58.5289C89.468 58.5289 89.2877 58.505 89.1185 58.54C89.0188 58.5607 88.9374 58.6729 88.8472 58.7437C88.9382 58.8137 89.0267 58.9418 89.1201 58.9449C89.6579 58.9648 90.1973 58.9553 90.7359 58.9561C90.862 58.9561 90.988 58.9561 91.1484 58.9561C91.1484 59.8391 91.1628 60.6879 91.1436 61.5359C91.1293 62.1619 91.1564 62.8079 91.0152 63.4093C90.708 64.7171 89.8462 65.577 88.5464 65.927C87.2609 66.2739 86.1047 65.9589 85.1512 65.0273C84.4618 64.3543 84.1091 63.5191 84.1107 62.5462C84.1155 61.3664 84.1139 60.1883 84.1139 58.9545Z" fill="#EAFCFC"/>
<path d="M85.6092 68.4679C86.013 68.6071 86.4359 68.6922 86.8484 68.802C86.8484 70.2681 86.8484 73.1589 86.8484 74.6075H88.4139C88.4139 73.1502 88.4139 70.2561 88.4139 68.7757C88.6094 68.7375 88.7722 68.7137 88.931 68.6739C91.403 68.0518 93.0084 66.5396 93.6731 64.0687C94.0002 62.8524 93.839 61.6083 93.8638 60.3752C93.8733 59.8844 93.5622 59.5702 93.1313 59.5686C92.6916 59.567 92.406 59.8653 92.3964 60.3673C92.386 60.8915 92.39 61.4166 92.4028 61.9416C92.4339 63.2207 92.2176 64.4212 91.4093 65.4704C90.2228 67.0113 88.1873 67.6954 86.329 67.1513C84.4164 66.5913 83.0399 64.9303 82.9139 62.9765C82.8628 62.1858 82.8931 61.3903 82.878 60.5964C82.874 60.3999 82.8732 60.1931 82.8117 60.0109C82.7032 59.6911 82.3625 59.5241 82.017 59.5758C81.6699 59.6283 81.4122 59.9194 81.4058 60.3211C81.393 61.0912 81.3946 61.862 81.4026 62.6321C81.4289 65.2843 83.0982 67.6039 85.6092 68.4679Z" fill="#EAFCFC"/>
<path d="M124.29 19.3736L124.498 21.2152C124.553 21.2947 124.644 21.2916 124.873 21.286C125.283 21.2748 125.692 21.2645 126.102 21.2677C126.166 21.2685 126.256 21.3297 126.289 21.3878C126.485 21.7362 126.661 22.0966 126.861 22.4426C126.923 22.55 126.938 22.6145 126.864 22.7219C126.566 23.1506 126.28 23.5874 125.993 24.0169C126.275 24.4004 127.187 25.1434 127.57 25.2969C127.916 24.9397 128.276 24.5801 128.621 24.2071C128.728 24.0909 128.801 24.0734 128.956 24.1315C129.318 24.2667 129.694 24.3693 130.069 24.464C130.22 24.5022 130.311 24.5444 130.341 24.7178C130.419 25.1656 130.524 25.6087 130.611 26.0558C130.634 26.1759 130.684 26.2356 130.808 26.2229C131.387 26.1624 131.967 26.1019 132.546 26.0415C132.689 26.0264 132.664 25.915 132.664 25.8283C132.662 25.3868 132.664 24.9445 132.647 24.5038C132.64 24.3383 132.695 24.2596 132.847 24.1888C133.252 24.001 133.644 23.787 134.072 23.5683C134.502 23.8523 134.978 24.1657 135.466 24.4879C135.977 24.0384 136.386 23.5158 136.727 22.9112C136.32 22.5158 135.912 22.1197 135.553 21.7712C135.693 21.2581 135.831 20.7856 135.943 20.3067C135.976 20.1683 136.028 20.1246 136.156 20.1007C136.598 20.0172 137.037 19.9193 137.478 19.8326C137.574 19.8135 137.639 19.7897 137.643 19.6759C137.663 19.0984 137.635 18.5264 137.481 17.964C137.446 17.8383 137.384 17.8104 137.268 17.8112C136.806 17.8168 136.342 17.8136 135.879 17.8216C135.767 17.8232 135.71 17.8001 135.651 17.6879C135.448 17.2981 135.228 16.9163 134.999 16.5408C134.941 16.4446 134.956 16.3913 135.008 16.3133C135.297 15.8782 135.582 15.4407 135.876 14.9936C135.417 14.4988 134.919 14.0708 134.325 13.7351C133.92 14.1488 133.518 14.5608 133.134 14.9538C132.6 14.7955 132.082 14.6428 131.529 14.4789C131.447 14.0875 131.356 13.6365 131.257 13.187C131.176 12.8179 131.244 12.8418 130.839 12.8449C130.8 12.8449 130.761 12.8314 130.722 12.8243C130.375 12.8632 130.028 12.9022 129.681 12.9404C129.606 12.9627 129.532 12.9977 129.454 13.0056C129.255 13.0247 129.173 13.1075 129.183 13.3246C129.205 13.7789 129.198 14.2339 129.192 14.6889C129.191 14.7486 129.141 14.8321 129.088 14.8623C128.748 15.0612 128.389 15.2306 128.06 15.4462C127.9 15.552 127.806 15.5353 127.662 15.4367C127.254 15.1567 126.834 14.8934 126.377 14.5958C125.949 15.1193 125.532 15.6308 125.11 16.1471C125.199 16.2369 125.249 16.2895 125.301 16.3404C125.624 16.653 125.943 16.9688 126.27 17.2759C126.363 17.3634 126.365 17.4334 126.329 17.5519C126.204 17.9592 126.106 18.3745 125.984 18.7833C125.965 18.847 125.883 18.9202 125.817 18.9361C125.458 19.0204 125.095 19.0856 124.734 19.1628C124.447 19.2256 124.338 19.2495 124.29 19.3736ZM127.988 19.8461C127.803 18.2002 128.991 16.7158 130.642 16.5313C132.293 16.3467 133.781 17.5312 133.966 19.1771C134.151 20.823 132.963 22.3074 131.312 22.4912C129.661 22.6773 128.173 21.4928 127.988 19.8461Z" fill="#96D9C9"/>
<path d="M36.2417 10.7241L36.9559 15.1821L39.3441 12.0478L47.2674 4.50012L40.2329 7.3146C40.2329 7.3146 36.8154 9.30494 36.6702 9.54359C36.525 9.78304 36.2417 10.7241 36.2417 10.7241Z" fill="#50BFA5"/>
<path d="M32.2625 9.08858L47.2674 4.49934L36.2417 10.7241L32.2625 9.08858Z" fill="#96D9C9"/>
<path d="M42.3682 13.5975L37.4825 11.6159L47.2675 4.49932L42.3682 13.5975Z" fill="#96D9C9"/>
<path d="M19.9019 32.3808C19.8452 32.026 19.8069 31.6616 19.7894 31.2981C19.7734 30.9632 19.7734 30.6211 19.7902 30.2814L20.1596 30.2997C20.1428 30.6275 20.1428 30.9576 20.1588 31.2806C20.1756 31.6306 20.2123 31.9814 20.2673 32.3227C20.2833 32.4229 20.3008 32.5232 20.32 32.6234L19.9569 32.6926C19.9362 32.5868 19.9178 32.4818 19.9019 32.3808ZM20.17 27.8989C20.3695 27.1496 20.6463 26.3875 20.9934 25.6365L21.3294 25.7908C20.991 26.5235 20.7213 27.2649 20.5274 27.9936L20.17 27.8989ZM31.1885 23.849C31.1638 23.8419 31.1398 23.8347 31.1151 23.8276L31.2236 23.4751C31.2452 23.4815 31.2659 23.4879 31.2843 23.4926C31.2843 23.4926 31.2954 23.4942 31.3234 23.4934C31.5292 23.4831 32.0367 23.332 32.2705 23.0782C32.4668 22.865 32.5944 22.5898 32.6495 22.2596L33.0142 22.3201C32.9479 22.7162 32.7852 23.0639 32.5426 23.3272C32.2186 23.6788 31.6002 23.8482 31.3417 23.861C31.2803 23.8649 31.23 23.861 31.1885 23.849ZM22.1608 23.5332C22.5893 22.8745 23.0728 22.2262 23.5979 21.6065L23.8803 21.8444C23.3657 22.4521 22.8917 23.0877 22.4712 23.7345L22.1608 23.5332ZM28.9487 21.5158C28.8466 21.1777 28.7852 20.8158 28.7668 20.4411C28.7572 20.2398 28.7596 20.0306 28.774 19.8198L29.1426 19.8453C29.1291 20.0418 29.1267 20.2359 29.1362 20.4228C29.153 20.7681 29.2089 21.0998 29.303 21.4092C29.3692 21.6288 29.4594 21.8436 29.5703 22.048L29.2456 22.2238C29.1219 21.9979 29.0221 21.76 28.9487 21.5158ZM30.1105 19.2113L30.0594 19.2033L30.1145 18.839L30.1704 18.8477C31.0066 18.983 31.7854 19.3895 32.3064 19.963L32.0327 20.2104C31.5667 19.6973 30.8661 19.333 30.1105 19.2113ZM25.4786 20.0704C25.836 19.8333 26.4903 19.4165 26.8614 19.2868C27.1494 19.1858 27.4167 19.1031 27.6776 19.0339L27.7726 19.3903C27.5212 19.4571 27.2627 19.5374 26.9834 19.6345C26.7401 19.7196 26.2661 19.9909 25.682 20.3775L25.4786 20.0704ZM29.3868 17.4675C29.7155 16.7269 30.1528 16.0372 30.6874 15.4191L30.9675 15.6594C30.4568 16.2496 30.0387 16.9083 29.7251 17.6163L29.3868 17.4675Z" fill="#9BC1F9"/>
<path d="M32.7277 14.1503C33.0692 13.9371 33.4243 13.7541 33.7826 13.607L33.6413 13.2665C33.2639 13.4216 32.8905 13.6141 32.5314 13.8377L32.7277 14.1503Z" fill="#9BC1F9"/>
<path opacity="0.2" d="M102.791 116.717H72.1475C70.1654 116.717 68.5584 115.114 68.5584 113.138C68.5584 111.162 70.1654 109.56 72.1475 109.56H102.791C104.773 109.56 106.38 111.162 106.38 113.138C106.38 115.114 104.773 116.717 102.791 116.717Z" fill="#3CB4C5"/>
<g opacity="0.5">
<path d="M64.331 92.8181H63.1062V99.0954H64.331V92.8181Z" fill="#3CB4C5"/>
<path d="M66.5373 93.6024H65.3125V98.3102H66.5373V93.6024Z" fill="#3CB4C5"/>
<path d="M68.7435 92.8181H67.5187V99.0954H68.7435V92.8181Z" fill="#3CB4C5"/>
<path d="M70.9498 89.9272H69.725V101.793H70.9498V89.9272Z" fill="#3CB4C5"/>
<path d="M73.1569 91.6208H71.932V100.293H73.1569V91.6208Z" fill="#3CB4C5"/>
<path d="M93.0961 89.9272H91.8713V101.793H93.0961V89.9272Z" fill="#3CB4C5"/>
<path d="M95.3024 92.2398H94.0776V99.6729H95.3024V92.2398Z" fill="#3CB4C5"/>
<path d="M97.3555 94.2221H96.1307V97.6913H97.3555V94.2221Z" fill="#3CB4C5"/>
<path d="M99.3423 93.1896H98.1175V98.7231H99.3423V93.1896Z" fill="#3CB4C5"/>
<path d="M101.373 90.2733H100.148V101.64H101.373V90.2733Z" fill="#3CB4C5"/>
<path d="M103.466 93.6024H102.241V98.3102H103.466V93.6024Z" fill="#3CB4C5"/>
<path d="M105.634 92.2398H104.409V99.6729H105.634V92.2398Z" fill="#3CB4C5"/>
<path d="M107.653 89.9272H106.428V101.985H107.653V89.9272Z" fill="#3CB4C5"/>
<path d="M109.637 92.2398H108.412V99.3014H109.637V92.2398Z" fill="#3CB4C5"/>
<path d="M111.708 93.9652H110.483V97.576H111.708V93.9652Z" fill="#3CB4C5"/>
<path d="M113.709 94.7034H112.484V96.8377H113.709V94.7034Z" fill="#3CB4C5"/>
<path d="M62.2229 94.2221H60.9981V97.319H62.2229V94.2221Z" fill="#3CB4C5"/>
<path d="M84.0621 89.9272H82.8372V101.793H84.0621V89.9272Z" fill="#3CB4C5"/>
<path d="M86.2683 91.6208H85.0435V100.293H86.2683V91.6208Z" fill="#3CB4C5"/>
<path d="M75.3631 93.6024H74.1383V98.3102H75.3631V93.6024Z" fill="#3CB4C5"/>
<path d="M77.5694 94.2221H76.3445V97.6913H77.5694V94.2221Z" fill="#3CB4C5"/>
<path d="M88.6549 93.6024H87.4301V98.3102H88.6549V93.6024Z" fill="#3CB4C5"/>
<path d="M90.8612 92.2398H89.6364V99.6729H90.8612V92.2398Z" fill="#3CB4C5"/>
<path d="M79.7756 93.1896H78.5508V98.7231H79.7756V93.1896Z" fill="#3CB4C5"/>
<path d="M81.9819 92.2398H80.7571V99.6729H81.9819V92.2398Z" fill="#3CB4C5"/>
</g>
<path d="M160.075 65.4593L150.065 68.9921C149.58 69.1631 149.047 68.9102 148.875 68.4265L146.607 62.0387C146.435 61.555 146.689 61.0236 147.174 60.8526L157.184 57.3197C157.669 57.1487 158.202 57.4017 158.374 57.8853L160.642 64.2732C160.814 64.7569 160.56 65.2883 160.075 65.4593Z" fill="#50BFA5"/>
<path d="M148.087 65.0647L145.88 69.8854L149.905 67.522L148.087 65.0647Z" fill="#50BFA5"/>
<path d="M151.062 63.4228L152.108 63.0235C152.108 63.0235 153.076 61.5558 152.99 61.1922C152.904 60.8287 152.417 60.1676 152.589 60.0006C152.762 59.8335 153.171 59.6028 153.615 59.9656C153.937 60.2289 154.216 61.5144 154.37 61.5518C154.465 61.5749 155.073 61.3625 155.515 61.2002C155.806 61.0936 156.131 61.1564 156.36 61.3633L156.361 61.3641C156.516 61.5041 156.552 61.7332 156.447 61.9137L156.284 62.1946L156.557 62.3728C156.762 62.5056 156.82 62.7769 156.688 62.9813L156.554 63.1897L156.734 63.2884C156.965 63.4149 157.035 63.714 156.883 63.9287L156.76 64.1038L156.802 64.1404C156.973 64.2923 157 64.55 156.863 64.7338L156.737 64.9032L153.95 65.9668C153.689 66.0663 153.41 66.1116 153.13 66.1005L152.088 66.3129C151.977 66.3359 151.864 66.2731 151.825 66.1665L150.929 63.7211C150.884 63.5986 150.944 63.4682 151.062 63.4228Z" fill="white"/>
<path d="M21.0963 48.9686H1.71155C0.766007 48.9686 0 49.7346 0 50.6805V61.9782C0 62.924 0.766007 63.6901 1.71155 63.6901H15.2754C16.1476 64.9072 17.7283 67.0869 17.8679 67.0869C17.9988 67.0869 17.7466 65.0281 17.5695 63.6901H21.0963C22.0418 63.6901 22.8078 62.9232 22.8078 61.9782V50.6805C22.8078 49.7346 22.0418 48.9686 21.0963 48.9686Z" fill="#C0ECFF"/>
<path d="M32.5329 35.4594H57.0061C58.2987 35.4594 59.3464 36.5079 59.3464 37.8006V53.25C59.3464 54.5434 58.2987 55.5911 57.0061 55.5911H40.493C39.3009 57.2553 37.1386 60.2368 36.9478 60.2368C36.7691 60.2368 37.113 57.4216 37.3556 55.5911H32.5329C31.2403 55.5911 30.1926 54.5426 30.1926 53.25V37.8006C30.1918 36.5071 31.2403 35.4594 32.5329 35.4594Z" fill="#F47458"/>
<path d="M56.6223 43.4009H50.5246H44.7245C44.6846 43.4009 44.6526 43.4327 44.6526 43.4725V44.3865C44.6526 44.4263 44.6846 44.4581 44.7245 44.4581H50.5246H50.8214H56.6215C56.6614 44.4581 56.6933 44.4263 56.6933 44.3865V43.4725C56.6941 43.4335 56.6622 43.4009 56.6223 43.4009Z" fill="white"/>
<path d="M32.9551 44.4589H42.8821C42.9196 44.4589 42.9507 44.4287 42.9507 44.3905V43.4685C42.9507 43.4311 42.9204 43.4001 42.8821 43.4001H32.9551C32.9176 43.4001 32.8865 43.4303 32.8865 43.4685V44.3905C32.8865 44.4287 32.9168 44.4589 32.9551 44.4589Z" fill="white"/>
<path d="M32.9128 41.0033H46.1439C46.1814 41.0033 46.2126 40.973 46.2126 40.9348V40.0129C46.2126 39.9755 46.1822 39.9444 46.1439 39.9444H32.9128C32.8753 39.9444 32.8441 39.9747 32.8441 40.0129V40.9348C32.8441 40.9722 32.8745 41.0033 32.9128 41.0033Z" fill="white"/>
<path d="M48.5425 41.0033H56.6255C56.663 41.0033 56.6941 40.973 56.6941 40.9348V40.0129C56.6941 39.9755 56.6638 39.9444 56.6255 39.9444H48.5425C48.505 39.9444 48.4739 39.9747 48.4739 40.0129V40.9348C48.4739 40.9722 48.505 41.0033 48.5425 41.0033Z" fill="white"/>
<path d="M32.8441 51.2286H56.6941V50.1706H32.8441V51.2286Z" fill="white"/>
<path d="M45.3519 47.8836H56.6944V46.8256H45.3519V47.8836Z" fill="white"/>
<path d="M32.8863 47.8836H44.2288V46.8256H32.8863V47.8836Z" fill="white"/>
<path d="M10.0793 58.4159C10.0793 58.9123 10.7304 59.3141 11.5339 59.3141C12.3374 59.3141 12.9885 58.9123 12.9885 58.4159C12.9885 57.9196 12.3374 57.5178 11.5339 57.5178C10.7312 57.5178 10.0793 57.9196 10.0793 58.4159Z" fill="#ADAEB5"/>
<path d="M11.5348 39.3311C15.1573 39.3311 18.0937 42.2585 18.0937 45.8701C18.0937 47.8429 17.2168 49.6121 15.8308 50.811C15.826 50.8165 14.8063 51.9151 14.6379 53.0654L14.6076 53.7694C14.5972 54.0001 14.507 54.2205 14.3506 54.3915C14.3371 54.4066 14.3227 54.4209 14.3075 54.4353H8.76198C8.74762 54.4209 8.73325 54.4066 8.71889 54.3915C8.5625 54.2205 8.47233 54.0001 8.46196 53.7694L8.43164 53.0654C8.26328 51.9143 7.24353 50.8157 7.23874 50.811C5.85275 49.6121 4.97583 47.8429 4.97583 45.8701C4.97583 42.2585 7.91219 39.3311 11.5348 39.3311Z" fill="#F7CC7F"/>
<path d="M9.48567 58.5162H13.5838C13.9915 58.5162 14.3219 58.1868 14.3219 57.7803V54.4361H8.74838V57.7803C8.74759 58.1868 9.07793 58.5162 9.48567 58.5162Z" fill="#544C60"/>
<path opacity="0.3" d="M9.89024 50.869C13.5144 50.869 16.4524 47.94 16.4524 44.3268C16.4524 42.8599 15.968 41.5052 15.1502 40.4146C16.9231 41.5848 18.0929 43.591 18.0929 45.8701C18.0929 47.843 17.216 49.6121 15.83 50.811C15.8252 50.8165 14.8054 51.9151 14.6371 53.0654L14.6068 53.7694C14.5964 54.0001 14.5062 54.2205 14.3498 54.3915C14.3363 54.4066 14.3219 54.4209 14.3067 54.4353H8.76118C8.74682 54.4209 8.73245 54.4066 8.71809 54.3915C8.5617 54.2205 8.47153 54.0001 8.46116 53.7694L8.43084 53.0654C8.26248 51.9143 7.24273 50.8157 7.23794 50.811C6.88686 50.5079 6.56928 50.1674 6.29001 49.7975C7.32412 50.4745 8.5609 50.869 9.89024 50.869Z" fill="#EAB054"/>
<path d="M11.5802 49.041L12.884 43.3738L14.0275 46.6704L14.3626 46.5542L12.8146 42.0923L11.4845 47.8748L10.1224 44.5599L8.8609 46.6831L9.16651 46.8637L10.065 45.3522L11.5802 49.041Z" fill="white"/>
<path d="M13.2231 55.288L13.2542 55.2912C13.4186 55.3079 13.5662 55.1886 13.583 55.0247L14.4942 46.2504C14.511 46.0865 14.3913 45.9393 14.2269 45.9226L14.1958 45.9194C14.0314 45.9027 13.8838 46.022 13.867 46.1859L12.9558 54.9603C12.9391 55.1242 13.0588 55.2713 13.2231 55.288Z" fill="#544C60"/>
<path d="M9.82633 55.2894C9.65318 55.3077 9.49759 55.182 9.48003 55.0086L8.572 46.266C8.55364 46.0934 8.67972 45.9383 8.85366 45.9208C9.02681 45.9033 9.18241 46.0282 9.19996 46.2016L10.108 54.9449C10.1256 55.1167 9.99948 55.2719 9.82633 55.2894Z" fill="#544C60"/>
<path d="M8.59123 55.051H14.4751C14.5206 55.051 14.5565 55.0144 14.5565 54.9698V54.5172C14.5565 54.4718 14.5198 54.4361 14.4751 54.4361H8.59123C8.54575 54.4361 8.50984 54.4726 8.50984 54.5172V54.9698C8.50904 55.0144 8.54575 55.051 8.59123 55.051Z" fill="#ADAEB5"/>
<path d="M8.59123 56.284H14.4751C14.5206 56.284 14.5565 56.2474 14.5565 56.2028V55.751C14.5565 55.7057 14.5198 55.6699 14.4751 55.6699H8.59123C8.54575 55.6699 8.50984 55.7065 8.50984 55.751V56.2028C8.50904 56.2482 8.54575 56.284 8.59123 56.284Z" fill="#ADAEB5"/>
<path d="M8.59123 57.6642H14.4751C14.5206 57.6642 14.5565 57.6276 14.5565 57.583V57.1304C14.5565 57.0858 14.5198 57.0493 14.4751 57.0493H8.59123C8.54575 57.0493 8.50984 57.0858 8.50984 57.1304V57.583C8.50904 57.6276 8.54575 57.6642 8.59123 57.6642Z" fill="#ADAEB5"/>
<path d="M182.001 139.266H2.6499V140.001H182.001V139.266Z" fill="#F7CC7F"/>
</svg>
