<svg width="158" height="140" viewBox="0 0 158 140" fill="none" xmlns="http://www.w3.org/2000/svg">
<g clip-path="url(#clip0_1048_412)">
<path d="M122.107 139.575H118.141C117.678 139.575 117.234 139.39 116.907 139.063C116.58 138.736 116.395 138.292 116.395 137.829V104.78C116.395 104.317 116.58 103.873 116.907 103.546C117.234 103.218 117.678 103.034 118.141 103.034H122.107C122.569 103.034 123.013 103.218 123.341 103.546C123.668 103.873 123.852 104.317 123.853 104.78V137.829C123.852 138.292 123.668 138.736 123.341 139.063C123.013 139.39 122.569 139.575 122.107 139.575Z" fill="#51A09B"/>
<path d="M127.816 95.1869L124.714 92.717C124.548 92.5851 124.358 92.4872 124.155 92.4288C123.951 92.3703 123.738 92.3525 123.528 92.3764C123.318 92.4002 123.114 92.4653 122.929 92.5678C122.744 92.6704 122.58 92.8084 122.449 92.974L101.863 118.828C101.731 118.994 101.633 119.184 101.575 119.387C101.516 119.591 101.498 119.804 101.522 120.014C101.546 120.224 101.611 120.428 101.714 120.613C101.816 120.798 101.954 120.962 102.12 121.093L102.204 121.16L112.218 137.05C112.331 137.229 112.478 137.384 112.651 137.506C112.823 137.629 113.019 137.716 113.225 137.762C113.432 137.809 113.645 137.815 113.854 137.779C114.062 137.744 114.262 137.667 114.441 137.554L117.796 135.44C118.157 135.212 118.414 134.85 118.508 134.433C118.603 134.016 118.528 133.578 118.3 133.217L110.036 120.105L128.073 97.4521C128.205 97.2865 128.303 97.0965 128.361 96.893C128.419 96.6896 128.437 96.4766 128.413 96.2663C128.389 96.0559 128.324 95.8524 128.222 95.6672C128.119 95.482 127.981 95.3188 127.816 95.1869Z" fill="#51A09B"/>
<path d="M124.745 114.881H105.67C105.064 114.881 104.484 114.64 104.056 114.212C103.628 113.784 103.387 113.203 103.386 112.598V108.031C103.387 107.425 103.628 106.845 104.056 106.417C104.484 105.989 105.064 105.748 105.67 105.747H124.745C125.35 105.748 125.93 105.989 126.359 106.417C126.787 106.845 127.027 107.425 127.028 108.031V112.598C127.027 113.203 126.787 113.784 126.359 114.212C125.93 114.64 125.35 114.881 124.745 114.881Z" fill="#CCCCCC"/>
<path d="M157.16 139.398H70.1057V140H157.16V139.398Z" fill="#3F3D56"/>
<path d="M118.025 64.3974C125.966 64.3974 132.403 57.96 132.403 50.019C132.403 42.0781 125.966 35.6407 118.025 35.6407C110.084 35.6407 103.647 42.0781 103.647 50.019C103.647 57.96 110.084 64.3974 118.025 64.3974Z" fill="#51A09B"/>
<path d="M132.839 108.531H103.269C102.806 108.53 102.363 108.346 102.035 108.019C101.708 107.692 101.524 107.248 101.523 106.785L107.436 76.5321C107.444 73.9389 108.479 71.4544 110.314 69.6229C112.15 67.7914 114.637 66.7624 117.23 66.7612H119.149C121.746 66.7641 124.235 67.7969 126.071 69.633C127.907 71.4691 128.94 73.9585 128.943 76.5551L134.583 106.76C134.585 106.991 134.542 107.22 134.456 107.435C134.37 107.649 134.242 107.844 134.08 108.009C133.917 108.173 133.724 108.304 133.511 108.394C133.298 108.484 133.07 108.53 132.839 108.531Z" fill="#2F2E41"/>
<path d="M106.818 54.8198C105.929 54.7949 104.823 54.7639 103.973 54.1419C103.719 53.9491 103.511 53.7032 103.362 53.4214C103.214 53.1396 103.129 52.8288 103.113 52.5106C103.098 52.2845 103.135 52.0579 103.222 51.8485C103.308 51.6391 103.442 51.4525 103.613 51.3035C104.058 50.9275 104.707 50.8395 105.407 51.0452L104.682 45.7456L105.214 45.6727L106.067 51.9031L105.622 51.699C105.107 51.4625 104.399 51.3422 103.96 51.7138C103.852 51.8109 103.768 51.9316 103.714 52.0665C103.66 52.2014 103.639 52.3469 103.65 52.4916C103.663 52.7284 103.727 52.9596 103.837 53.1695C103.948 53.3794 104.102 53.5631 104.29 53.708C104.952 54.1921 105.833 54.2545 106.833 54.2826L106.818 54.8198Z" fill="#2F2E41"/>
<path d="M111.184 46.2028H108.29V46.7401H111.184V46.2028Z" fill="#2F2E41"/>
<path d="M90.8649 96.2835L93.4034 99.3298C93.9733 100.014 94.9897 100.106 95.6737 99.5362L121.063 78.3795C121.747 77.8096 121.839 76.7931 121.269 76.1092L118.731 73.0629C118.161 72.379 117.145 72.2866 116.461 72.8565L91.0714 94.0132C90.3875 94.5832 90.295 95.5996 90.8649 96.2835Z" fill="#51A09B"/>
<path d="M122.54 77.7487L112.068 87.7003C111.741 88.0106 111.308 88.1834 110.857 88.1826C110.407 88.1818 109.974 88.0075 109.648 87.696L104.91 83.1618C104.723 82.9827 104.578 82.7643 104.486 82.5224C104.393 82.2805 104.355 82.0211 104.375 81.7628C104.394 81.5045 104.471 81.2537 104.599 81.0285C104.727 80.8034 104.903 80.6094 105.115 80.4605L117.535 71.7402C117.892 71.4434 118.353 71.3003 118.815 71.3422C119.278 71.384 119.705 71.6075 120.003 71.9637L122.765 75.2774C123.062 75.6351 123.206 76.0962 123.164 76.5595C123.121 77.0229 122.897 77.4506 122.54 77.7487Z" fill="#2F2E41"/>
<path d="M118.791 35.4559C118.186 32.6885 118.933 29.7638 120.553 27.4712C122.203 25.1354 124.787 23.5735 127.527 22.8605C132.84 21.4784 138.48 23.4082 142.414 27.091C146.659 31.0652 148.553 36.8432 148.281 42.5791C148.004 48.3948 145.502 53.855 141.746 58.246C139.897 60.3971 137.793 62.3156 135.482 63.9594C134.342 64.7737 133.007 65.8343 131.54 65.8581C130.477 65.8754 129.118 65.1865 129.398 63.9309C129.495 63.4986 129.798 63.029 130.276 62.9726C130.785 62.9125 130.791 62.1058 130.276 62.1666C129.026 62.3143 128.298 63.6684 128.636 64.8446C129.011 66.145 130.519 66.7641 131.771 66.6514C133.358 66.5085 134.722 65.4935 135.976 64.5927C137.229 63.6952 138.425 62.7214 139.558 61.677C144.054 57.5214 147.529 52.1091 148.676 46.0376C149.832 39.9216 148.693 33.2813 144.712 28.3754C141.1 23.9238 135.292 21.0495 129.501 21.6861C126.458 22.0206 123.489 23.2615 121.274 25.4048C120.188 26.4518 119.32 27.7031 118.719 29.0869C118.118 30.4707 117.797 31.9596 117.774 33.468C117.773 34.2086 117.854 34.947 118.014 35.6701C118.125 36.1766 118.902 35.9623 118.791 35.4559Z" fill="#2F2E41"/>
<path d="M120.678 35.8822C120.57 34.8937 120.688 33.8936 121.025 32.958C121.363 32.0225 121.909 31.1764 122.623 30.4843C123.337 29.7922 124.2 29.2725 125.145 28.9648C126.091 28.6572 127.094 28.5697 128.079 28.7091C128.592 28.7737 128.588 27.9672 128.079 27.9031C126.988 27.7638 125.879 27.8724 124.836 28.2207C123.793 28.569 122.841 29.148 122.053 29.9148C121.264 30.6816 120.658 31.6163 120.281 32.6495C119.903 33.6826 119.764 34.7876 119.872 35.8822C119.921 36.3939 120.728 36.399 120.678 35.8822Z" fill="#2F2E41"/>
<path d="M117.476 32.5816C117.189 32.5814 116.91 32.6836 116.692 32.8699C116.473 33.0561 116.327 33.3144 116.281 33.5981C116.236 33.8819 116.293 34.1728 116.442 34.4184C116.591 34.6641 116.823 34.8486 117.096 34.9387L120.923 36.2022C121.227 36.3027 121.559 36.2782 121.845 36.134C122.132 35.9897 122.349 35.7377 122.45 35.4332C122.55 35.1287 122.526 34.7968 122.381 34.5104C122.237 34.224 121.985 34.0067 121.681 33.9062L117.854 32.6426C117.732 32.6023 117.604 32.5817 117.476 32.5816Z" fill="#2F2E41"/>
<path d="M42.7509 83.7021H42.6908C19.6146 83.7021 0.840332 64.9279 0.840332 41.851C0.840332 18.7743 19.6146 0 42.6913 0C65.7681 0 84.5425 18.7743 84.5425 41.851C84.5403 47.5116 83.3906 53.1129 81.163 58.3167C78.9354 63.5205 75.6761 68.2188 71.5819 72.1277L80.0017 81.5662L79.57 81.7493C72.5911 84.7086 65.5198 80.6746 62.6295 78.6541C56.5258 81.9625 49.6936 83.6975 42.7509 83.7021ZM42.6913 0.672068C19.9852 0.672068 1.51239 19.1449 1.51239 41.851C1.51239 64.5571 19.9852 83.0301 42.6913 83.0301C49.6123 83.0359 56.4226 81.2936 62.4904 77.9646L62.6752 77.8629L62.847 77.9853C65.4707 79.8522 72.2028 83.8433 78.8696 81.3066L70.6446 72.0867L70.884 71.8625C74.9821 68.0112 78.2485 63.3617 80.4818 58.2004C82.7152 53.039 83.8684 47.4751 83.8704 41.8513C83.8704 19.1449 65.3976 0.672068 42.6913 0.672068Z" fill="#3F3D56"/>
<path d="M55.6525 35.0034C47.064 34.914 38.4765 34.7604 29.8884 34.6437C27.0253 34.6049 24.1621 34.5708 21.2989 34.5415C18.8319 34.5158 18.8256 30.6795 21.2989 30.7053C29.8875 30.7947 38.4749 30.9482 47.0631 31.0649C49.9261 31.1038 52.7893 31.1379 55.6525 31.1672C58.1195 31.1929 58.1258 35.0292 55.6525 35.0034Z" fill="#51A09B"/>
<path d="M65.0614 43.9545L30.3501 43.5949L20.478 43.4926C18.011 43.467 18.0047 39.6308 20.478 39.6564L55.1894 40.016L65.0614 40.1183C67.5285 40.1439 67.5348 43.9801 65.0614 43.9545Z" fill="#51A09B"/>
<path d="M65.0614 52.9056L30.3501 52.546L20.478 52.4437C18.011 52.4182 18.0047 48.5819 20.478 48.6075L55.1894 48.9672L65.0614 49.0694C67.5285 49.095 67.5348 52.9313 65.0614 52.9056Z" fill="#51A09B"/>
<path d="M84.393 88.8066C85.7284 88.8066 86.8109 87.7241 86.8109 86.3887C86.8109 85.0533 85.7284 83.9708 84.393 83.9708C83.0576 83.9708 81.9751 85.0533 81.9751 86.3887C81.9751 87.7241 83.0576 88.8066 84.393 88.8066Z" fill="#E6E6E6"/>
</g>
<defs>
<clipPath id="clip0_1048_412">
<rect width="156.319" height="140" fill="white" transform="translate(0.840332)"/>
</clipPath>
</defs>
</svg>
